# MagicaVoxel @ Ephtracy

# group
o 

# material
mtllib BuildingGround_1-0.mtl
usemtl palette

# normals
vn -1 0 0
vn 1 0 0
vn 0 0 1
vn 0 0 -1
vn 0 -1 0
vn 0 1 0

# texcoords
vt 0.720703 0.5
vt 0.939453 0.5
vt 0.962891 0.5
vt 0.970703 0.5

# verts
v -10 -0.4 5
v -10 -0.4 -5
v -10 -0.3 5
v -10 -0.3 -5
v -10 -0.2 5
v -10 -0.2 -5
v -10 -0.1 5
v -10 -0.1 -5
v -10 0 5
v -10 0 -5
v 10 -0.4 5
v 10 -0.4 -5
v 10 -0.3 5
v 10 -0.3 -5
v 10 -0.2 5
v 10 -0.2 -5
v 10 -0.1 5
v 10 -0.1 -5
v 10 0 5
v 10 0 -5
v -10 -0.4 5
v -10 -0.3 5
v -10 -0.2 5
v -10 -0.1 5
v -10 0 5
v 10 -0.4 5
v 10 -0.3 5
v 10 -0.2 5
v 10 -0.1 5
v 10 0 5
v -10 -0.4 -5
v -10 -0.3 -5
v -10 -0.2 -5
v -10 -0.1 -5
v -10 0 -5
v 10 -0.4 -5
v 10 -0.3 -5
v 10 -0.2 -5
v 10 -0.1 -5
v 10 0 -5
v -10 -0.4 5
v 10 -0.4 5
v -10 -0.4 -5
v 10 -0.4 -5
v -10 0 5
v 10 0 5
v -10 0 -5
v 10 0 -5

# faces
f 3/1/1 2/1/1 1/1/1
f 4/1/1 2/1/1 3/1/1
f 5/4/1 4/4/1 3/4/1
f 6/4/1 4/4/1 5/4/1
f 7/2/1 6/2/1 5/2/1
f 8/2/1 6/2/1 7/2/1
f 9/3/1 8/3/1 7/3/1
f 10/3/1 8/3/1 9/3/1
f 11/1/2 12/1/2 13/1/2
f 13/1/2 12/1/2 14/1/2
f 13/4/2 14/4/2 15/4/2
f 15/4/2 14/4/2 16/4/2
f 15/2/2 16/2/2 17/2/2
f 17/2/2 16/2/2 18/2/2
f 17/3/2 18/3/2 19/3/2
f 19/3/2 18/3/2 20/3/2
f 26/1/3 22/1/3 21/1/3
f 27/4/3 23/4/3 22/4/3
f 27/1/3 22/1/3 26/1/3
f 28/2/3 24/2/3 23/2/3
f 28/4/3 23/4/3 27/4/3
f 29/3/3 25/3/3 24/3/3
f 29/2/3 24/2/3 28/2/3
f 30/3/3 25/3/3 29/3/3
f 31/1/4 32/1/4 36/1/4
f 32/4/4 33/4/4 37/4/4
f 36/1/4 32/1/4 37/1/4
f 33/2/4 34/2/4 38/2/4
f 37/4/4 33/4/4 38/4/4
f 34/3/4 35/3/4 39/3/4
f 38/2/4 34/2/4 39/2/4
f 39/3/4 35/3/4 40/3/4
f 43/1/5 42/1/5 41/1/5
f 44/1/5 42/1/5 43/1/5
f 45/3/6 46/3/6 47/3/6
f 47/3/6 46/3/6 48/3/6
