# MagicaVoxel @ Ephtracy

# group
o 

# material
mtllib Building_Pillar_2-0.mtl
usemtl palette

# normals
vn -1 0 0
vn 1 0 0
vn 0 0 1
vn 0 0 -1
vn 0 -1 0
vn 0 1 0

# texcoords
vt 0.767578 0.5
vt 0.876953 0.5

# verts
v -0.2 0.7 0.1
v -0.2 0.7 0
v -0.2 0.8 0.1
v -0.2 0.8 0
v -0.2 1 0.1
v -0.2 1 0
v -0.1 0 0.1
v -0.1 0 0
v -0.1 0.1 0.1
v -0.1 0.1 0
v -0.1 0.6 0.1
v -0.1 0.6 0
v -0.1 0.7 0.1
v -0.1 0.7 0
v 0 0 0.2
v 0 0 0.1
v 0 0 0
v 0 0 -0.1
v 0 0.1 0.2
v 0 0.1 0.1
v 0 0.1 0
v 0 0.1 -0.1
v 0 0.6 0.1
v 0 0.6 0
v 0 0.7 0.1
v 0 0.7 0
v 0 0.9 0.1
v 0 0.9 0
v 0 1.1 0.1
v 0 1.1 0
v 0.2 0.7 0.1
v 0.2 0.7 0
v 0.2 0.8 0.1
v 0.2 0.8 0
v 0.2 1 0.1
v 0.2 1 0
v -0.1 0.7 0.1
v -0.1 0.7 0
v -0.1 0.8 0.1
v -0.1 0.8 0
v -0.1 1 0.1
v -0.1 1 0
v 0.1 0 0.2
v 0.1 0 0.1
v 0.1 0 0
v 0.1 0 -0.1
v 0.1 0.1 0.2
v 0.1 0.1 0.1
v 0.1 0.1 0
v 0.1 0.1 -0.1
v 0.1 0.6 0.1
v 0.1 0.6 0
v 0.1 0.7 0.1
v 0.1 0.7 0
v 0.1 0.9 0.1
v 0.1 0.9 0
v 0.1 1.1 0.1
v 0.1 1.1 0
v 0.2 0 0.1
v 0.2 0 0
v 0.2 0.1 0.1
v 0.2 0.1 0
v 0.2 0.6 0.1
v 0.2 0.6 0
v 0.2 0.7 0.1
v 0.2 0.7 0
v 0.3 0.7 0.1
v 0.3 0.7 0
v 0.3 0.8 0.1
v 0.3 0.8 0
v 0.3 1 0.1
v 0.3 1 0
v 0 0 0.2
v 0 0.1 0.2
v 0.1 0 0.2
v 0.1 0.1 0.2
v -0.2 0.7 0.1
v -0.2 0.8 0.1
v -0.2 1 0.1
v -0.1 0 0.1
v -0.1 0.1 0.1
v -0.1 0.6 0.1
v -0.1 0.7 0.1
v -0.1 0.8 0.1
v -0.1 1 0.1
v 0 0 0.1
v 0 0.1 0.1
v 0 0.6 0.1
v 0 0.7 0.1
v 0 0.9 0.1
v 0 1.1 0.1
v 0.1 0 0.1
v 0.1 0.1 0.1
v 0.1 0.6 0.1
v 0.1 0.7 0.1
v 0.1 0.9 0.1
v 0.1 1.1 0.1
v 0.2 0 0.1
v 0.2 0.1 0.1
v 0.2 0.6 0.1
v 0.2 0.7 0.1
v 0.2 0.8 0.1
v 0.2 1 0.1
v 0.3 0.7 0.1
v 0.3 0.8 0.1
v 0.3 1 0.1
v -0.2 0.7 0
v -0.2 0.8 0
v -0.2 1 0
v -0.1 0 0
v -0.1 0.1 0
v -0.1 0.6 0
v -0.1 0.7 0
v -0.1 0.8 0
v -0.1 1 0
v 0 0 0
v 0 0.1 0
v 0 0.6 0
v 0 0.7 0
v 0 0.9 0
v 0 1.1 0
v 0.1 0 0
v 0.1 0.1 0
v 0.1 0.6 0
v 0.1 0.7 0
v 0.1 0.9 0
v 0.1 1.1 0
v 0.2 0 0
v 0.2 0.1 0
v 0.2 0.6 0
v 0.2 0.7 0
v 0.2 0.8 0
v 0.2 1 0
v 0.3 0.7 0
v 0.3 0.8 0
v 0.3 1 0
v 0 0 -0.1
v 0 0.1 -0.1
v 0.1 0 -0.1
v 0.1 0.1 -0.1
v 0 0 0.2
v 0.1 0 0.2
v -0.1 0 0.1
v 0 0 0.1
v 0.1 0 0.1
v 0.2 0 0.1
v -0.1 0 0
v 0 0 0
v 0.1 0 0
v 0.2 0 0
v 0 0 -0.1
v 0.1 0 -0.1
v -0.1 0.6 0.1
v 0 0.6 0.1
v 0.1 0.6 0.1
v 0.2 0.6 0.1
v -0.1 0.6 0
v 0 0.6 0
v 0.1 0.6 0
v 0.2 0.6 0
v -0.2 0.7 0.1
v -0.1 0.7 0.1
v 0.2 0.7 0.1
v 0.3 0.7 0.1
v -0.2 0.7 0
v -0.1 0.7 0
v 0.2 0.7 0
v 0.3 0.7 0
v 0 0.1 0.2
v 0.1 0.1 0.2
v -0.1 0.1 0.1
v 0 0.1 0.1
v 0.1 0.1 0.1
v 0.2 0.1 0.1
v -0.1 0.1 0
v 0 0.1 0
v 0.1 0.1 0
v 0.2 0.1 0
v 0 0.1 -0.1
v 0.1 0.1 -0.1
v -0.1 0.7 0.1
v 0 0.7 0.1
v 0.1 0.7 0.1
v 0.2 0.7 0.1
v -0.1 0.7 0
v 0 0.7 0
v 0.1 0.7 0
v 0.2 0.7 0
v -0.2 1 0.1
v -0.1 1 0.1
v 0.2 1 0.1
v 0.3 1 0.1
v -0.2 1 0
v -0.1 1 0
v 0.2 1 0
v 0.3 1 0
v 0 1.1 0.1
v 0.1 1.1 0.1
v 0 1.1 0
v 0.1 1.1 0

# faces
f 3/2/1 2/2/1 1/2/1
f 4/2/1 2/2/1 3/2/1
f 5/1/1 4/1/1 3/1/1
f 6/1/1 4/1/1 5/1/1
f 9/2/1 8/2/1 7/2/1
f 10/2/1 8/2/1 9/2/1
f 13/2/1 12/2/1 11/2/1
f 14/2/1 12/2/1 13/2/1
f 19/2/1 16/2/1 15/2/1
f 20/2/1 16/2/1 19/2/1
f 21/2/1 18/2/1 17/2/1
f 22/2/1 18/2/1 21/2/1
f 23/2/1 21/2/1 20/2/1
f 24/2/1 21/2/1 23/2/1
f 27/2/1 26/2/1 25/2/1
f 28/2/1 26/2/1 27/2/1
f 29/1/1 28/1/1 27/1/1
f 30/1/1 28/1/1 29/1/1
f 33/2/1 32/2/1 31/2/1
f 34/2/1 32/2/1 33/2/1
f 35/1/1 34/1/1 33/1/1
f 36/1/1 34/1/1 35/1/1
f 37/2/2 38/2/2 39/2/2
f 39/2/2 38/2/2 40/2/2
f 39/1/2 40/1/2 41/1/2
f 41/1/2 40/1/2 42/1/2
f 43/2/2 44/2/2 47/2/2
f 47/2/2 44/2/2 48/2/2
f 45/2/2 46/2/2 49/2/2
f 49/2/2 46/2/2 50/2/2
f 48/2/2 49/2/2 51/2/2
f 51/2/2 49/2/2 52/2/2
f 53/2/2 54/2/2 55/2/2
f 55/2/2 54/2/2 56/2/2
f 55/1/2 56/1/2 57/1/2
f 57/1/2 56/1/2 58/1/2
f 59/2/2 60/2/2 61/2/2
f 61/2/2 60/2/2 62/2/2
f 63/2/2 64/2/2 65/2/2
f 65/2/2 64/2/2 66/2/2
f 67/2/2 68/2/2 69/2/2
f 69/2/2 68/2/2 70/2/2
f 69/1/2 70/1/2 71/1/2
f 71/1/2 70/1/2 72/1/2
f 75/2/3 74/2/3 73/2/3
f 76/2/3 74/2/3 75/2/3
f 83/2/3 78/2/3 77/2/3
f 84/1/3 79/1/3 78/1/3
f 84/2/3 78/2/3 83/2/3
f 85/1/3 79/1/3 84/1/3
f 86/2/3 81/2/3 80/2/3
f 87/2/3 81/2/3 86/2/3
f 88/2/3 83/2/3 82/2/3
f 89/2/3 83/2/3 88/2/3
f 93/2/3 90/2/3 89/2/3
f 93/2/3 89/2/3 88/2/3
f 93/2/3 88/2/3 87/2/3
f 94/2/3 90/2/3 93/2/3
f 95/2/3 90/2/3 94/2/3
f 96/1/3 91/1/3 90/1/3
f 96/2/3 90/2/3 95/2/3
f 97/1/3 91/1/3 96/1/3
f 98/2/3 93/2/3 92/2/3
f 99/2/3 93/2/3 98/2/3
f 100/2/3 95/2/3 94/2/3
f 101/2/3 95/2/3 100/2/3
f 104/2/3 102/2/3 101/2/3
f 105/1/3 103/1/3 102/1/3
f 105/2/3 102/2/3 104/2/3
f 106/1/3 103/1/3 105/1/3
f 107/2/4 108/2/4 113/2/4
f 108/1/4 109/1/4 114/1/4
f 113/2/4 108/2/4 114/2/4
f 114/1/4 109/1/4 115/1/4
f 110/2/4 111/2/4 116/2/4
f 116/2/4 111/2/4 117/2/4
f 112/2/4 113/2/4 118/2/4
f 118/2/4 113/2/4 119/2/4
f 119/2/4 120/2/4 123/2/4
f 118/2/4 119/2/4 123/2/4
f 117/2/4 118/2/4 123/2/4
f 123/2/4 120/2/4 124/2/4
f 124/2/4 120/2/4 125/2/4
f 120/1/4 121/1/4 126/1/4
f 125/2/4 120/2/4 126/2/4
f 126/1/4 121/1/4 127/1/4
f 122/2/4 123/2/4 128/2/4
f 128/2/4 123/2/4 129/2/4
f 124/2/4 125/2/4 130/2/4
f 130/2/4 125/2/4 131/2/4
f 131/2/4 132/2/4 134/2/4
f 132/1/4 133/1/4 135/1/4
f 134/2/4 132/2/4 135/2/4
f 135/1/4 133/1/4 136/1/4
f 137/2/4 138/2/4 139/2/4
f 139/2/4 138/2/4 140/2/4
f 144/2/5 142/2/5 141/2/5
f 145/2/5 142/2/5 144/2/5
f 147/2/5 144/2/5 143/2/5
f 147/2/5 146/2/5 145/2/5
f 147/2/5 145/2/5 144/2/5
f 148/2/5 146/2/5 147/2/5
f 149/2/5 146/2/5 148/2/5
f 150/2/5 146/2/5 149/2/5
f 151/2/5 149/2/5 148/2/5
f 152/2/5 149/2/5 151/2/5
f 157/2/5 154/2/5 153/2/5
f 158/2/5 154/2/5 157/2/5
f 159/2/5 156/2/5 155/2/5
f 160/2/5 156/2/5 159/2/5
f 165/2/5 162/2/5 161/2/5
f 166/2/5 162/2/5 165/2/5
f 167/2/5 164/2/5 163/2/5
f 168/2/5 164/2/5 167/2/5
f 169/2/6 170/2/6 172/2/6
f 172/2/6 170/2/6 173/2/6
f 171/2/6 172/2/6 175/2/6
f 175/2/6 172/2/6 176/2/6
f 173/2/6 174/2/6 177/2/6
f 177/2/6 174/2/6 178/2/6
f 176/2/6 177/2/6 179/2/6
f 179/2/6 177/2/6 180/2/6
f 181/2/6 182/2/6 185/2/6
f 185/2/6 182/2/6 186/2/6
f 183/2/6 184/2/6 187/2/6
f 187/2/6 184/2/6 188/2/6
f 189/1/6 190/1/6 193/1/6
f 193/1/6 190/1/6 194/1/6
f 191/1/6 192/1/6 195/1/6
f 195/1/6 192/1/6 196/1/6
f 197/1/6 198/1/6 199/1/6
f 199/1/6 198/1/6 200/1/6
