# MagicaVoxel @ Ephtracy

# group
o 

# material
mtllib Building_Throne_1-0.mtl
usemtl palette

# normals
vn -1 0 0
vn 1 0 0
vn 0 0 1
vn 0 0 -1
vn 0 -1 0
vn 0 1 0

# texcoords
vt 0.943359 0.5
vt 0.947266 0.5
vt 0.974609 0.5
vt 0.978516 0.5

# verts
v -0.4 0.3 0.3
v -0.4 0.3 -0.3
v -0.4 0.4 0.3
v -0.4 0.4 -0.3
v -0.4 0.5 0.3
v -0.4 0.5 -0.3
v -0.4 0.6 -0.3
v -0.4 0.6 -0.4
v -0.4 0.9 -0.3
v -0.4 0.9 -0.4
v -0.3 0 0.3
v -0.3 0 0.2
v -0.3 0 -0.2
v -0.3 0 -0.3
v -0.3 0.1 0.2
v -0.3 0.1 -0.2
v -0.3 0.3 0.3
v -0.3 0.3 -0.3
v -0.3 0.3 -0.4
v -0.3 0.4 -0.3
v -0.3 0.5 -0.3
v -0.3 0.6 -0.2
v -0.3 0.6 -0.3
v -0.3 0.6 -0.4
v -0.3 0.7 -0.2
v -0.3 0.7 -0.3
v -0.3 0.8 -0.2
v -0.3 0.8 -0.3
v -0.3 0.9 -0.2
v -0.3 0.9 -0.3
v -0.3 0.9 -0.4
v -0.3 1 -0.3
v -0.3 1 -0.4
v -0.3 1.1 -0.3
v -0.3 1.1 -0.4
v -0.3 1.2 -0.3
v -0.3 1.2 -0.4
v -0.2 0.2 -0.3
v -0.2 0.2 -0.4
v -0.2 0.3 -0.3
v -0.2 0.3 -0.4
v -0.2 0.4 -0.2
v -0.2 0.4 -0.3
v -0.2 0.5 -0.2
v -0.2 0.5 -0.3
v -0.2 0.6 -0.2
v -0.2 0.6 -0.3
v -0.2 0.9 -0.2
v -0.2 0.9 -0.3
v -0.2 1 -0.2
v -0.2 1 -0.3
v -0.2 1 -0.4
v -0.2 1.1 -0.3
v -0.2 1.1 -0.4
v -0.2 1.2 -0.3
v -0.2 1.2 -0.4
v -0.2 1.3 -0.3
v -0.2 1.3 -0.4
v -0.1 1.1 -0.3
v -0.1 1.1 -0.4
v -0.1 1.2 -0.3
v -0.1 1.2 -0.4
v 0.2 0 0.3
v 0.2 0 0.2
v 0.2 0 -0.2
v 0.2 0 -0.3
v 0.2 0.1 0.3
v 0.2 0.1 0.2
v 0.2 0.1 -0.2
v 0.2 0.1 -0.3
v 0.2 0.3 0.3
v 0.2 0.3 0.2
v 0.2 0.3 0.1
v 0.2 0.3 0
v 0.2 0.3 -0.1
v 0.2 0.3 -0.2
v 0.2 0.4 0.3
v 0.2 0.4 -0.2
v 0.2 1.1 -0.3
v 0.2 1.1 -0.4
v 0.2 1.2 -0.3
v 0.2 1.2 -0.4
v 0.3 0.4 0.3
v 0.3 0.4 -0.3
v 0.3 0.5 0.3
v 0.3 0.5 -0.3
v -0.3 0.4 0.3
v -0.3 0.4 -0.3
v -0.3 0.5 0.3
v -0.3 0.5 -0.3
v -0.2 0 0.3
v -0.2 0 0.2
v -0.2 0 -0.2
v -0.2 0 -0.3
v -0.2 0.1 0.3
v -0.2 0.1 0.2
v -0.2 0.1 -0.2
v -0.2 0.1 -0.3
v -0.2 0.3 0.3
v -0.2 0.3 0.2
v -0.2 0.3 0.1
v -0.2 0.3 0
v -0.2 0.3 -0.1
v -0.2 0.3 -0.2
v -0.2 0.4 0.3
v -0.2 0.4 -0.2
v -0.2 1.1 -0.3
v -0.2 1.1 -0.4
v -0.2 1.2 -0.3
v -0.2 1.2 -0.4
v 0.1 1.1 -0.3
v 0.1 1.1 -0.4
v 0.1 1.2 -0.3
v 0.1 1.2 -0.4
v 0.2 0.2 -0.3
v 0.2 0.2 -0.4
v 0.2 0.3 -0.3
v 0.2 0.3 -0.4
v 0.2 0.4 -0.2
v 0.2 0.4 -0.3
v 0.2 0.5 -0.2
v 0.2 0.5 -0.3
v 0.2 0.6 -0.2
v 0.2 0.6 -0.3
v 0.2 0.9 -0.2
v 0.2 0.9 -0.3
v 0.2 1 -0.2
v 0.2 1 -0.3
v 0.2 1 -0.4
v 0.2 1.1 -0.3
v 0.2 1.1 -0.4
v 0.2 1.2 -0.3
v 0.2 1.2 -0.4
v 0.2 1.3 -0.3
v 0.2 1.3 -0.4
v 0.3 0 0.3
v 0.3 0 0.2
v 0.3 0 -0.2
v 0.3 0 -0.3
v 0.3 0.1 0.2
v 0.3 0.1 -0.2
v 0.3 0.3 0.3
v 0.3 0.3 -0.3
v 0.3 0.3 -0.4
v 0.3 0.4 -0.3
v 0.3 0.5 -0.3
v 0.3 0.6 -0.2
v 0.3 0.6 -0.3
v 0.3 0.6 -0.4
v 0.3 0.7 -0.2
v 0.3 0.7 -0.3
v 0.3 0.8 -0.2
v 0.3 0.8 -0.3
v 0.3 0.9 -0.2
v 0.3 0.9 -0.3
v 0.3 0.9 -0.4
v 0.3 1 -0.3
v 0.3 1 -0.4
v 0.3 1.1 -0.3
v 0.3 1.1 -0.4
v 0.3 1.2 -0.3
v 0.3 1.2 -0.4
v 0.4 0.3 0.3
v 0.4 0.3 -0.3
v 0.4 0.4 0.3
v 0.4 0.4 -0.3
v 0.4 0.5 0.3
v 0.4 0.5 -0.3
v 0.4 0.6 -0.3
v 0.4 0.6 -0.4
v 0.4 0.9 -0.3
v 0.4 0.9 -0.4
v -0.4 0.3 0.3
v -0.4 0.4 0.3
v -0.4 0.5 0.3
v -0.3 0 0.3
v -0.3 0.3 0.3
v -0.3 0.4 0.3
v -0.3 0.5 0.3
v -0.2 0 0.3
v -0.2 0.1 0.3
v -0.2 0.2 0.3
v -0.2 0.3 0.3
v -0.2 0.4 0.3
v -0.1 0.2 0.3
v -0.1 0.3 0.3
v 0 0.2 0.3
v 0 0.3 0.3
v 0.1 0.2 0.3
v 0.1 0.3 0.3
v 0.2 0 0.3
v 0.2 0.1 0.3
v 0.2 0.2 0.3
v 0.2 0.3 0.3
v 0.2 0.4 0.3
v 0.3 0 0.3
v 0.3 0.3 0.3
v 0.3 0.4 0.3
v 0.3 0.5 0.3
v 0.4 0.3 0.3
v 0.4 0.4 0.3
v 0.4 0.5 0.3
v -0.3 0 -0.2
v -0.3 0.1 -0.2
v -0.3 0.6 -0.2
v -0.3 0.7 -0.2
v -0.3 0.8 -0.2
v -0.3 0.9 -0.2
v -0.2 0 -0.2
v -0.2 0.1 -0.2
v -0.2 0.3 -0.2
v -0.2 0.4 -0.2
v -0.2 0.5 -0.2
v -0.2 0.6 -0.2
v -0.2 0.7 -0.2
v -0.2 0.8 -0.2
v -0.2 0.9 -0.2
v -0.2 1 -0.2
v -0.1 0.3 -0.2
v -0.1 0.4 -0.2
v -0.1 0.5 -0.2
v -0.1 0.6 -0.2
v -0.1 0.7 -0.2
v -0.1 0.8 -0.2
v -0.1 0.9 -0.2
v -0.1 1 -0.2
v 0 0.3 -0.2
v 0 0.4 -0.2
v 0 0.5 -0.2
v 0 0.6 -0.2
v 0 0.7 -0.2
v 0 0.8 -0.2
v 0 0.9 -0.2
v 0 1 -0.2
v 0.1 0.3 -0.2
v 0.1 0.4 -0.2
v 0.1 0.5 -0.2
v 0.1 0.6 -0.2
v 0.1 0.7 -0.2
v 0.1 0.8 -0.2
v 0.1 0.9 -0.2
v 0.1 1 -0.2
v 0.2 0 -0.2
v 0.2 0.1 -0.2
v 0.2 0.3 -0.2
v 0.2 0.4 -0.2
v 0.2 0.5 -0.2
v 0.2 0.6 -0.2
v 0.2 0.7 -0.2
v 0.2 0.8 -0.2
v 0.2 0.9 -0.2
v 0.2 1 -0.2
v 0.3 0 -0.2
v 0.3 0.1 -0.2
v 0.3 0.6 -0.2
v 0.3 0.7 -0.2
v 0.3 0.8 -0.2
v 0.3 0.9 -0.2
v -0.4 0.6 -0.3
v -0.4 0.9 -0.3
v -0.3 0.4 -0.3
v -0.3 0.5 -0.3
v -0.3 0.6 -0.3
v -0.3 0.7 -0.3
v -0.3 0.8 -0.3
v -0.3 0.9 -0.3
v -0.3 1 -0.3
v -0.3 1.1 -0.3
v -0.3 1.2 -0.3
v -0.2 0.4 -0.3
v -0.2 0.5 -0.3
v -0.2 0.6 -0.3
v -0.2 0.9 -0.3
v -0.2 1 -0.3
v -0.2 1.1 -0.3
v -0.2 1.2 -0.3
v -0.2 1.3 -0.3
v -0.1 1 -0.3
v -0.1 1.1 -0.3
v -0.1 1.2 -0.3
v -0.1 1.3 -0.3
v 0 1 -0.3
v 0.1 1 -0.3
v 0.1 1.1 -0.3
v 0.1 1.2 -0.3
v 0.1 1.3 -0.3
v 0.2 0.4 -0.3
v 0.2 0.5 -0.3
v 0.2 0.6 -0.3
v 0.2 0.9 -0.3
v 0.2 1 -0.3
v 0.2 1.1 -0.3
v 0.2 1.2 -0.3
v 0.2 1.3 -0.3
v 0.3 0.4 -0.3
v 0.3 0.5 -0.3
v 0.3 0.6 -0.3
v 0.3 0.7 -0.3
v 0.3 0.8 -0.3
v 0.3 0.9 -0.3
v 0.3 1 -0.3
v 0.3 1.1 -0.3
v 0.3 1.2 -0.3
v 0.4 0.6 -0.3
v 0.4 0.9 -0.3
v -0.3 0 0.2
v -0.3 0.1 0.2
v -0.2 0 0.2
v -0.2 0.1 0.2
v 0.2 0 0.2
v 0.2 0.1 0.2
v 0.3 0 0.2
v 0.3 0.1 0.2
v -0.4 0.3 -0.3
v -0.4 0.4 -0.3
v -0.4 0.5 -0.3
v -0.3 0 -0.3
v -0.3 0.3 -0.3
v -0.3 0.4 -0.3
v -0.3 0.5 -0.3
v -0.2 0 -0.3
v -0.2 0.1 -0.3
v -0.2 0.2 -0.3
v -0.2 0.3 -0.3
v 0.2 0 -0.3
v 0.2 0.1 -0.3
v 0.2 0.2 -0.3
v 0.2 0.3 -0.3
v 0.3 0 -0.3
v 0.3 0.3 -0.3
v 0.3 0.4 -0.3
v 0.3 0.5 -0.3
v 0.4 0.3 -0.3
v 0.4 0.4 -0.3
v 0.4 0.5 -0.3
v -0.4 0.6 -0.4
v -0.4 0.9 -0.4
v -0.3 0.3 -0.4
v -0.3 0.6 -0.4
v -0.3 0.9 -0.4
v -0.3 1 -0.4
v -0.3 1.1 -0.4
v -0.3 1.2 -0.4
v -0.2 0.2 -0.4
v -0.2 0.3 -0.4
v -0.2 1 -0.4
v -0.2 1.1 -0.4
v -0.2 1.2 -0.4
v -0.2 1.3 -0.4
v -0.1 1 -0.4
v -0.1 1.1 -0.4
v -0.1 1.2 -0.4
v -0.1 1.3 -0.4
v 0.1 1 -0.4
v 0.1 1.1 -0.4
v 0.1 1.2 -0.4
v 0.1 1.3 -0.4
v 0.2 0.2 -0.4
v 0.2 0.3 -0.4
v 0.2 1 -0.4
v 0.2 1.1 -0.4
v 0.2 1.2 -0.4
v 0.2 1.3 -0.4
v 0.3 0.3 -0.4
v 0.3 0.6 -0.4
v 0.3 0.9 -0.4
v 0.3 1 -0.4
v 0.3 1.1 -0.4
v 0.3 1.2 -0.4
v 0.4 0.6 -0.4
v 0.4 0.9 -0.4
v -0.3 0 0.3
v -0.2 0 0.3
v 0.2 0 0.3
v 0.3 0 0.3
v -0.3 0 0.2
v -0.2 0 0.2
v 0.2 0 0.2
v 0.3 0 0.2
v -0.3 0 -0.2
v -0.2 0 -0.2
v 0.2 0 -0.2
v 0.3 0 -0.2
v -0.3 0 -0.3
v -0.2 0 -0.3
v 0.2 0 -0.3
v 0.3 0 -0.3
v -0.2 0.1 0.3
v 0.2 0.1 0.3
v -0.3 0.1 0.2
v -0.2 0.1 0.2
v 0.2 0.1 0.2
v 0.3 0.1 0.2
v -0.3 0.1 -0.2
v -0.2 0.1 -0.2
v 0.2 0.1 -0.2
v 0.3 0.1 -0.2
v -0.2 0.1 -0.3
v 0.2 0.1 -0.3
v -0.2 0.2 -0.3
v 0.2 0.2 -0.3
v -0.2 0.2 -0.4
v 0.2 0.2 -0.4
v -0.4 0.3 0.3
v -0.3 0.3 0.3
v 0.3 0.3 0.3
v 0.4 0.3 0.3
v -0.4 0.3 -0.3
v -0.3 0.3 -0.3
v -0.2 0.3 -0.3
v 0.2 0.3 -0.3
v 0.3 0.3 -0.3
v 0.4 0.3 -0.3
v -0.3 0.3 -0.4
v -0.2 0.3 -0.4
v 0.2 0.3 -0.4
v 0.3 0.3 -0.4
v -0.3 0.6 -0.2
v -0.2 0.6 -0.2
v 0.2 0.6 -0.2
v 0.3 0.6 -0.2
v -0.4 0.6 -0.3
v -0.3 0.6 -0.3
v -0.2 0.6 -0.3
v 0.2 0.6 -0.3
v 0.3 0.6 -0.3
v 0.4 0.6 -0.3
v -0.4 0.6 -0.4
v -0.3 0.6 -0.4
v 0.3 0.6 -0.4
v 0.4 0.6 -0.4
v -0.3 1.1 -0.3
v -0.2 1.1 -0.3
v 0.2 1.1 -0.3
v 0.3 1.1 -0.3
v -0.3 1.1 -0.4
v -0.2 1.1 -0.4
v 0.2 1.1 -0.4
v 0.3 1.1 -0.4
v -0.2 1.2 -0.3
v -0.1 1.2 -0.3
v 0.1 1.2 -0.3
v 0.2 1.2 -0.3
v -0.2 1.2 -0.4
v -0.1 1.2 -0.4
v 0.1 1.2 -0.4
v 0.2 1.2 -0.4
v -0.2 0.3 0.3
v -0.1 0.3 0.3
v 0 0.3 0.3
v 0.1 0.3 0.3
v 0.2 0.3 0.3
v -0.2 0.3 0.2
v -0.1 0.3 0.2
v 0 0.3 0.2
v 0.1 0.3 0.2
v 0.2 0.3 0.2
v -0.2 0.3 0.1
v -0.1 0.3 0.1
v 0 0.3 0.1
v 0.1 0.3 0.1
v 0.2 0.3 0.1
v -0.2 0.3 0
v -0.1 0.3 0
v 0 0.3 0
v 0.1 0.3 0
v 0.2 0.3 0
v -0.2 0.3 -0.1
v -0.1 0.3 -0.1
v 0 0.3 -0.1
v 0.1 0.3 -0.1
v 0.2 0.3 -0.1
v -0.2 0.3 -0.2
v -0.1 0.3 -0.2
v 0 0.3 -0.2
v 0.1 0.3 -0.2
v 0.2 0.3 -0.2
v -0.3 0.4 0.3
v -0.2 0.4 0.3
v 0.2 0.4 0.3
v 0.3 0.4 0.3
v -0.2 0.4 -0.2
v 0.2 0.4 -0.2
v -0.3 0.4 -0.3
v -0.2 0.4 -0.3
v 0.2 0.4 -0.3
v 0.3 0.4 -0.3
v -0.4 0.5 0.3
v -0.3 0.5 0.3
v 0.3 0.5 0.3
v 0.4 0.5 0.3
v -0.4 0.5 -0.3
v -0.3 0.5 -0.3
v 0.3 0.5 -0.3
v 0.4 0.5 -0.3
v -0.3 0.9 -0.2
v -0.2 0.9 -0.2
v 0.2 0.9 -0.2
v 0.3 0.9 -0.2
v -0.4 0.9 -0.3
v -0.3 0.9 -0.3
v -0.2 0.9 -0.3
v 0.2 0.9 -0.3
v 0.3 0.9 -0.3
v 0.4 0.9 -0.3
v -0.4 0.9 -0.4
v -0.3 0.9 -0.4
v 0.3 0.9 -0.4
v 0.4 0.9 -0.4
v -0.2 1 -0.2
v -0.1 1 -0.2
v 0 1 -0.2
v 0.1 1 -0.2
v 0.2 1 -0.2
v -0.3 1 -0.3
v -0.2 1 -0.3
v -0.1 1 -0.3
v 0 1 -0.3
v 0.1 1 -0.3
v 0.2 1 -0.3
v 0.3 1 -0.3
v -0.3 1 -0.4
v -0.2 1 -0.4
v 0.2 1 -0.4
v 0.3 1 -0.4
v -0.2 1.1 -0.3
v -0.1 1.1 -0.3
v 0.1 1.1 -0.3
v 0.2 1.1 -0.3
v -0.2 1.1 -0.4
v -0.1 1.1 -0.4
v 0.1 1.1 -0.4
v 0.2 1.1 -0.4
v -0.3 1.2 -0.3
v -0.2 1.2 -0.3
v 0.2 1.2 -0.3
v 0.3 1.2 -0.3
v -0.3 1.2 -0.4
v -0.2 1.2 -0.4
v 0.2 1.2 -0.4
v 0.3 1.2 -0.4
v -0.2 1.3 -0.3
v -0.1 1.3 -0.3
v 0.1 1.3 -0.3
v 0.2 1.3 -0.3
v -0.2 1.3 -0.4
v -0.1 1.3 -0.4
v 0.1 1.3 -0.4
v 0.2 1.3 -0.4

# faces
f 3/4/1 2/4/1 1/4/1
f 4/4/1 2/4/1 3/4/1
f 5/3/1 4/3/1 3/3/1
f 6/3/1 4/3/1 5/3/1
f 9/4/1 8/4/1 7/4/1
f 10/4/1 8/4/1 9/4/1
f 15/4/1 12/4/1 11/4/1
f 16/4/1 14/4/1 13/4/1
f 17/4/1 15/4/1 11/4/1
f 17/4/1 16/4/1 15/4/1
f 18/4/1 14/4/1 16/4/1
f 18/4/1 16/4/1 17/4/1
f 20/4/1 19/4/1 18/4/1
f 21/4/1 19/4/1 20/4/1
f 23/4/1 19/4/1 21/4/1
f 24/4/1 19/4/1 23/4/1
f 25/3/1 23/3/1 22/3/1
f 26/3/1 23/3/1 25/3/1
f 27/1/1 26/1/1 25/1/1
f 28/1/1 26/1/1 27/1/1
f 29/3/1 28/3/1 27/3/1
f 30/3/1 28/3/1 29/3/1
f 32/4/1 31/4/1 30/4/1
f 33/4/1 31/4/1 32/4/1
f 36/2/1 35/2/1 34/2/1
f 37/2/1 35/2/1 36/2/1
f 40/4/1 39/4/1 38/4/1
f 41/4/1 39/4/1 40/4/1
f 44/1/1 43/1/1 42/1/1
f 45/1/1 43/1/1 44/1/1
f 46/3/1 45/3/1 44/3/1
f 47/3/1 45/3/1 46/3/1
f 50/3/1 49/3/1 48/3/1
f 51/3/1 49/3/1 50/3/1
f 53/2/1 52/2/1 51/2/1
f 54/2/1 52/2/1 53/2/1
f 57/2/1 56/2/1 55/2/1
f 58/2/1 56/2/1 57/2/1
f 61/2/1 60/2/1 59/2/1
f 62/2/1 60/2/1 61/2/1
f 67/4/1 64/4/1 63/4/1
f 68/4/1 64/4/1 67/4/1
f 69/4/1 66/4/1 65/4/1
f 70/4/1 66/4/1 69/4/1
f 77/3/1 72/3/1 71/3/1
f 77/3/1 76/3/1 75/3/1
f 77/3/1 75/3/1 74/3/1
f 77/3/1 74/3/1 73/3/1
f 77/3/1 73/3/1 72/3/1
f 78/3/1 76/3/1 77/3/1
f 81/2/1 80/2/1 79/2/1
f 82/2/1 80/2/1 81/2/1
f 85/3/1 84/3/1 83/3/1
f 86/3/1 84/3/1 85/3/1
f 87/3/2 88/3/2 89/3/2
f 89/3/2 88/3/2 90/3/2
f 91/4/2 92/4/2 95/4/2
f 95/4/2 92/4/2 96/4/2
f 93/4/2 94/4/2 97/4/2
f 97/4/2 94/4/2 98/4/2
f 99/3/2 100/3/2 105/3/2
f 103/3/2 104/3/2 105/3/2
f 102/3/2 103/3/2 105/3/2
f 101/3/2 102/3/2 105/3/2
f 100/3/2 101/3/2 105/3/2
f 105/3/2 104/3/2 106/3/2
f 107/2/2 108/2/2 109/2/2
f 109/2/2 108/2/2 110/2/2
f 111/2/2 112/2/2 113/2/2
f 113/2/2 112/2/2 114/2/2
f 115/4/2 116/4/2 117/4/2
f 117/4/2 116/4/2 118/4/2
f 119/3/2 120/3/2 121/3/2
f 121/3/2 120/3/2 122/3/2
f 121/1/2 122/1/2 123/1/2
f 123/1/2 122/1/2 124/1/2
f 125/1/2 126/1/2 127/1/2
f 127/1/2 126/1/2 128/1/2
f 128/2/2 129/2/2 130/2/2
f 130/2/2 129/2/2 131/2/2
f 132/2/2 133/2/2 134/2/2
f 134/2/2 133/2/2 135/2/2
f 136/4/2 137/4/2 140/4/2
f 138/4/2 139/4/2 141/4/2
f 136/4/2 140/4/2 142/4/2
f 140/4/2 141/4/2 142/4/2
f 141/4/2 139/4/2 143/4/2
f 142/4/2 141/4/2 143/4/2
f 143/4/2 144/4/2 145/4/2
f 145/4/2 144/4/2 146/4/2
f 146/4/2 144/4/2 148/4/2
f 148/4/2 144/4/2 149/4/2
f 147/1/2 148/1/2 150/1/2
f 150/1/2 148/1/2 151/1/2
f 150/3/2 151/3/2 152/3/2
f 152/3/2 151/3/2 153/3/2
f 152/1/2 153/1/2 154/1/2
f 154/1/2 153/1/2 155/1/2
f 155/4/2 156/4/2 157/4/2
f 157/4/2 156/4/2 158/4/2
f 159/2/2 160/2/2 161/2/2
f 161/2/2 160/2/2 162/2/2
f 163/4/2 164/4/2 165/4/2
f 165/4/2 164/4/2 166/4/2
f 165/3/2 166/3/2 167/3/2
f 167/3/2 166/3/2 168/3/2
f 169/4/2 170/4/2 171/4/2
f 171/4/2 170/4/2 172/4/2
f 177/4/3 174/4/3 173/4/3
f 178/3/3 175/3/3 174/3/3
f 178/4/3 174/4/3 177/4/3
f 179/3/3 175/3/3 178/3/3
f 180/4/3 177/4/3 176/4/3
f 181/4/3 177/4/3 180/4/3
f 182/4/3 177/4/3 181/4/3
f 183/3/3 178/3/3 177/3/3
f 183/4/3 177/4/3 182/4/3
f 184/3/3 178/3/3 183/3/3
f 185/4/3 182/4/3 181/4/3
f 185/1/3 183/1/3 182/1/3
f 186/1/3 183/1/3 185/1/3
f 187/4/3 185/4/3 181/4/3
f 187/3/3 186/3/3 185/3/3
f 188/3/3 186/3/3 187/3/3
f 189/4/3 187/4/3 181/4/3
f 189/1/3 188/1/3 187/1/3
f 190/1/3 188/1/3 189/1/3
f 192/4/3 189/4/3 181/4/3
f 193/3/3 190/3/3 189/3/3
f 193/4/3 189/4/3 192/4/3
f 194/3/3 190/3/3 193/3/3
f 196/4/3 194/4/3 193/4/3
f 196/4/3 193/4/3 192/4/3
f 196/4/3 192/4/3 191/4/3
f 197/3/3 195/3/3 194/3/3
f 197/4/3 194/4/3 196/4/3
f 198/3/3 195/3/3 197/3/3
f 200/4/3 198/4/3 197/4/3
f 201/3/3 199/3/3 198/3/3
f 201/4/3 198/4/3 200/4/3
f 202/3/3 199/3/3 201/3/3
f 209/4/3 204/4/3 203/4/3
f 210/4/3 204/4/3 209/4/3
f 214/3/3 206/3/3 205/3/3
f 215/1/3 207/1/3 206/1/3
f 215/3/3 206/3/3 214/3/3
f 216/3/3 208/3/3 207/3/3
f 216/1/3 207/1/3 215/1/3
f 217/3/3 208/3/3 216/3/3
f 219/3/3 212/3/3 211/3/3
f 220/1/3 213/1/3 212/1/3
f 220/3/3 212/3/3 219/3/3
f 221/3/3 214/3/3 213/3/3
f 221/1/3 213/1/3 220/1/3
f 222/1/3 215/1/3 214/1/3
f 222/3/3 214/3/3 221/3/3
f 223/3/3 216/3/3 215/3/3
f 223/1/3 215/1/3 222/1/3
f 224/1/3 217/1/3 216/1/3
f 224/3/3 216/3/3 223/3/3
f 225/3/3 218/3/3 217/3/3
f 225/1/3 217/1/3 224/1/3
f 226/3/3 218/3/3 225/3/3
f 227/1/3 220/1/3 219/1/3
f 228/3/3 221/3/3 220/3/3
f 228/1/3 220/1/3 227/1/3
f 229/1/3 222/1/3 221/1/3
f 229/3/3 221/3/3 228/3/3
f 230/3/3 223/3/3 222/3/3
f 230/1/3 222/1/3 229/1/3
f 231/1/3 224/1/3 223/1/3
f 231/3/3 223/3/3 230/3/3
f 232/3/3 225/3/3 224/3/3
f 232/1/3 224/1/3 231/1/3
f 233/1/3 226/1/3 225/1/3
f 233/3/3 225/3/3 232/3/3
f 234/1/3 226/1/3 233/1/3
f 235/3/3 228/3/3 227/3/3
f 236/1/3 229/1/3 228/1/3
f 236/3/3 228/3/3 235/3/3
f 237/3/3 230/3/3 229/3/3
f 237/1/3 229/1/3 236/1/3
f 238/1/3 231/1/3 230/1/3
f 238/3/3 230/3/3 237/3/3
f 239/3/3 232/3/3 231/3/3
f 239/1/3 231/1/3 238/1/3
f 240/1/3 233/1/3 232/1/3
f 240/3/3 232/3/3 239/3/3
f 241/3/3 234/3/3 233/3/3
f 241/1/3 233/1/3 240/1/3
f 242/3/3 234/3/3 241/3/3
f 245/1/3 236/1/3 235/1/3
f 246/3/3 237/3/3 236/3/3
f 246/1/3 236/1/3 245/1/3
f 247/1/3 238/1/3 237/1/3
f 247/3/3 237/3/3 246/3/3
f 248/3/3 239/3/3 238/3/3
f 248/1/3 238/1/3 247/1/3
f 249/1/3 240/1/3 239/1/3
f 249/3/3 239/3/3 248/3/3
f 250/3/3 241/3/3 240/3/3
f 250/1/3 240/1/3 249/1/3
f 251/1/3 242/1/3 241/1/3
f 251/3/3 241/3/3 250/3/3
f 252/1/3 242/1/3 251/1/3
f 253/4/3 244/4/3 243/4/3
f 254/4/3 244/4/3 253/4/3
f 255/1/3 249/1/3 248/1/3
f 256/3/3 250/3/3 249/3/3
f 256/1/3 249/1/3 255/1/3
f 257/1/3 251/1/3 250/1/3
f 257/3/3 250/3/3 256/3/3
f 258/1/3 251/1/3 257/1/3
f 263/4/3 260/4/3 259/4/3
f 264/4/3 260/4/3 263/4/3
f 265/4/3 260/4/3 264/4/3
f 266/4/3 260/4/3 265/4/3
f 270/4/3 262/4/3 261/4/3
f 270/4/3 263/4/3 262/4/3
f 271/4/3 263/4/3 270/4/3
f 272/4/3 263/4/3 271/4/3
f 273/4/3 267/4/3 266/4/3
f 274/4/3 267/4/3 273/4/3
f 275/2/3 269/2/3 268/2/3
f 276/2/3 269/2/3 275/2/3
f 278/2/3 275/2/3 274/2/3
f 279/2/3 275/2/3 278/2/3
f 280/2/3 277/2/3 276/2/3
f 281/2/3 277/2/3 280/2/3
f 282/4/3 279/4/3 278/4/3
f 283/4/3 279/4/3 282/4/3
f 284/2/3 280/2/3 279/2/3
f 284/4/3 279/4/3 283/4/3
f 285/4/3 281/4/3 280/4/3
f 285/2/3 280/2/3 284/2/3
f 286/4/3 281/4/3 285/4/3
f 291/2/3 284/2/3 283/2/3
f 292/2/3 284/2/3 291/2/3
f 293/2/3 286/2/3 285/2/3
f 294/2/3 286/2/3 293/2/3
f 295/4/3 289/4/3 288/4/3
f 295/4/3 288/4/3 287/4/3
f 296/4/3 289/4/3 295/4/3
f 297/4/3 289/4/3 296/4/3
f 300/4/3 291/4/3 290/4/3
f 301/4/3 291/4/3 300/4/3
f 302/2/3 293/2/3 292/2/3
f 303/2/3 293/2/3 302/2/3
f 304/4/3 299/4/3 298/4/3
f 304/4/3 300/4/3 299/4/3
f 304/4/3 298/4/3 297/4/3
f 305/4/3 300/4/3 304/4/3
f 306/4/4 307/4/4 308/4/4
f 308/4/4 307/4/4 309/4/4
f 310/4/4 311/4/4 312/4/4
f 312/4/4 311/4/4 313/4/4
f 314/4/4 315/4/4 318/4/4
f 315/3/4 316/3/4 319/3/4
f 318/4/4 315/4/4 319/4/4
f 319/3/4 316/3/4 320/3/4
f 317/4/4 318/4/4 321/4/4
f 321/4/4 318/4/4 322/4/4
f 322/4/4 318/4/4 323/4/4
f 323/4/4 318/4/4 324/4/4
f 322/4/4 323/4/4 326/4/4
f 326/4/4 323/4/4 327/4/4
f 325/4/4 326/4/4 329/4/4
f 327/4/4 328/4/4 329/4/4
f 326/4/4 327/4/4 329/4/4
f 329/4/4 328/4/4 330/4/4
f 330/4/4 331/4/4 333/4/4
f 331/3/4 332/3/4 334/3/4
f 333/4/4 331/4/4 334/4/4
f 334/3/4 332/3/4 335/3/4
f 336/4/4 337/4/4 339/4/4
f 339/4/4 337/4/4 340/4/4
f 338/4/4 339/4/4 345/4/4
f 339/4/4 340/4/4 345/4/4
f 340/4/4 341/4/4 345/4/4
f 345/4/4 341/4/4 346/4/4
f 342/2/4 343/2/4 347/2/4
f 347/2/4 343/2/4 348/2/4
f 345/4/4 346/4/4 350/4/4
f 344/4/4 345/4/4 350/4/4
f 346/2/4 347/2/4 350/2/4
f 350/2/4 347/2/4 351/2/4
f 348/2/4 349/2/4 352/2/4
f 352/2/4 349/2/4 353/2/4
f 350/4/4 351/4/4 354/4/4
f 344/4/4 350/4/4 354/4/4
f 351/2/4 352/2/4 355/2/4
f 354/4/4 351/4/4 355/4/4
f 352/4/4 353/4/4 356/4/4
f 355/2/4 352/2/4 356/2/4
f 356/4/4 353/4/4 357/4/4
f 344/4/4 354/4/4 358/4/4
f 358/4/4 354/4/4 359/4/4
f 354/2/4 355/2/4 360/2/4
f 359/4/4 354/4/4 360/4/4
f 360/2/4 355/2/4 361/2/4
f 356/2/4 357/2/4 362/2/4
f 362/2/4 357/2/4 363/2/4
f 359/4/4 360/4/4 364/4/4
f 364/4/4 360/4/4 365/4/4
f 365/4/4 360/4/4 366/4/4
f 366/4/4 360/4/4 367/4/4
f 361/2/4 362/2/4 368/2/4
f 368/2/4 362/2/4 369/2/4
f 365/4/4 366/4/4 370/4/4
f 370/4/4 366/4/4 371/4/4
f 376/4/5 373/4/5 372/4/5
f 377/4/5 373/4/5 376/4/5
f 378/4/5 375/4/5 374/4/5
f 379/4/5 375/4/5 378/4/5
f 384/4/5 381/4/5 380/4/5
f 385/4/5 381/4/5 384/4/5
f 386/4/5 383/4/5 382/4/5
f 387/4/5 383/4/5 386/4/5
f 391/4/5 389/4/5 388/4/5
f 392/4/5 389/4/5 391/4/5
f 394/4/5 391/4/5 390/4/5
f 394/4/5 393/4/5 392/4/5
f 394/4/5 392/4/5 391/4/5
f 395/4/5 393/4/5 394/4/5
f 396/4/5 393/4/5 395/4/5
f 397/4/5 393/4/5 396/4/5
f 398/4/5 396/4/5 395/4/5
f 399/4/5 396/4/5 398/4/5
f 402/4/5 401/4/5 400/4/5
f 403/4/5 401/4/5 402/4/5
f 408/4/5 405/4/5 404/4/5
f 409/4/5 405/4/5 408/4/5
f 412/4/5 407/4/5 406/4/5
f 413/4/5 407/4/5 412/4/5
f 414/4/5 410/4/5 409/4/5
f 415/4/5 410/4/5 414/4/5
f 416/4/5 412/4/5 411/4/5
f 417/4/5 412/4/5 416/4/5
f 423/3/5 419/3/5 418/3/5
f 424/3/5 419/3/5 423/3/5
f 425/1/5 421/1/5 420/1/5
f 426/1/5 421/1/5 425/1/5
f 428/4/5 423/4/5 422/4/5
f 429/4/5 423/4/5 428/4/5
f 430/4/5 427/4/5 426/4/5
f 431/4/5 427/4/5 430/4/5
f 436/2/5 433/2/5 432/2/5
f 437/2/5 433/2/5 436/2/5
f 438/2/5 435/2/5 434/2/5
f 439/2/5 435/2/5 438/2/5
f 444/2/5 441/2/5 440/2/5
f 445/2/5 441/2/5 444/2/5
f 446/2/5 443/2/5 442/2/5
f 447/2/5 443/2/5 446/2/5
f 448/1/6 449/1/6 453/1/6
f 449/3/6 450/3/6 454/3/6
f 453/1/6 449/1/6 454/1/6
f 450/1/6 451/1/6 455/1/6
f 454/3/6 450/3/6 455/3/6
f 451/3/6 452/3/6 456/3/6
f 455/1/6 451/1/6 456/1/6
f 456/3/6 452/3/6 457/3/6
f 453/3/6 454/3/6 458/3/6
f 454/1/6 455/1/6 459/1/6
f 458/3/6 454/3/6 459/3/6
f 455/3/6 456/3/6 460/3/6
f 459/1/6 455/1/6 460/1/6
f 456/1/6 457/1/6 461/1/6
f 460/3/6 456/3/6 461/3/6
f 461/1/6 457/1/6 462/1/6
f 458/1/6 459/1/6 463/1/6
f 459/3/6 460/3/6 464/3/6
f 463/1/6 459/1/6 464/1/6
f 460/1/6 461/1/6 465/1/6
f 464/3/6 460/3/6 465/3/6
f 461/3/6 462/3/6 466/3/6
f 465/1/6 461/1/6 466/1/6
f 466/3/6 462/3/6 467/3/6
f 463/3/6 464/3/6 468/3/6
f 464/1/6 465/1/6 469/1/6
f 468/3/6 464/3/6 469/3/6
f 465/3/6 466/3/6 470/3/6
f 469/1/6 465/1/6 470/1/6
f 466/1/6 467/1/6 471/1/6
f 470/3/6 466/3/6 471/3/6
f 471/1/6 467/1/6 472/1/6
f 468/1/6 469/1/6 473/1/6
f 469/3/6 470/3/6 474/3/6
f 473/1/6 469/1/6 474/1/6
f 470/1/6 471/1/6 475/1/6
f 474/3/6 470/3/6 475/3/6
f 471/3/6 472/3/6 476/3/6
f 475/1/6 471/1/6 476/1/6
f 476/3/6 472/3/6 477/3/6
f 478/3/6 479/3/6 482/3/6
f 480/3/6 481/3/6 483/3/6
f 478/3/6 482/3/6 484/3/6
f 484/3/6 482/3/6 485/3/6
f 483/3/6 481/3/6 486/3/6
f 486/3/6 481/3/6 487/3/6
f 488/3/6 489/3/6 492/3/6
f 492/3/6 489/3/6 493/3/6
f 490/3/6 491/3/6 494/3/6
f 494/3/6 491/3/6 495/3/6
f 496/3/6 497/3/6 501/3/6
f 501/3/6 497/3/6 502/3/6
f 498/1/6 499/1/6 503/1/6
f 503/1/6 499/1/6 504/1/6
f 500/4/6 501/4/6 506/4/6
f 506/4/6 501/4/6 507/4/6
f 504/4/6 505/4/6 508/4/6
f 508/4/6 505/4/6 509/4/6
f 510/3/6 511/3/6 516/3/6
f 511/1/6 512/1/6 517/1/6
f 516/3/6 511/3/6 517/3/6
f 512/3/6 513/3/6 518/3/6
f 517/1/6 512/1/6 518/1/6
f 513/1/6 514/1/6 519/1/6
f 518/3/6 513/3/6 519/3/6
f 519/1/6 514/1/6 520/1/6
f 515/4/6 516/4/6 522/4/6
f 522/4/6 516/4/6 523/4/6
f 520/4/6 521/4/6 524/4/6
f 524/4/6 521/4/6 525/4/6
f 526/2/6 527/2/6 530/2/6
f 530/2/6 527/2/6 531/2/6
f 528/2/6 529/2/6 532/2/6
f 532/2/6 529/2/6 533/2/6
f 534/2/6 535/2/6 538/2/6
f 538/2/6 535/2/6 539/2/6
f 536/2/6 537/2/6 540/2/6
f 540/2/6 537/2/6 541/2/6
f 542/2/6 543/2/6 546/2/6
f 543/4/6 544/4/6 547/4/6
f 546/2/6 543/2/6 547/2/6
f 544/2/6 545/2/6 548/2/6
f 547/4/6 544/4/6 548/4/6
f 548/2/6 545/2/6 549/2/6
