# MagicaVoxel @ Ephtracy

# group
o 

# material
mtllib Minecart_1-0.mtl
usemtl palette

# normals
vn -1 0 0
vn 1 0 0
vn 0 0 1
vn 0 0 -1
vn 0 -1 0
vn 0 1 0

# texcoords
vt 0.00195313 0.5
vt 0.0332031 0.5
vt 0.0644531 0.5
vt 0.939453 0.5
vt 0.970703 0.5

# verts
v -1.3 0.2 1.1
v -1.3 0.2 0.9
v -1.3 0.2 -0.9
v -1.3 0.2 -1.1
v -1.3 0.4 1.1
v -1.3 0.4 0.9
v -1.3 0.4 -0.9
v -1.3 0.4 -1.1
v -1.2 0 1.2
v -1.2 0 0.8
v -1.2 0 -0.8
v -1.2 0 -1.2
v -1.2 0.1 1.3
v -1.2 0.1 1.2
v -1.2 0.1 1.1
v -1.2 0.1 0.9
v -1.2 0.1 0.8
v -1.2 0.1 0.7
v -1.2 0.1 -0.7
v -1.2 0.1 -0.8
v -1.2 0.1 -0.9
v -1.2 0.1 -1.1
v -1.2 0.1 -1.2
v -1.2 0.1 -1.3
v -1.2 0.2 1.2
v -1.2 0.2 1.1
v -1.2 0.2 0.9
v -1.2 0.2 0.8
v -1.2 0.2 -0.8
v -1.2 0.2 -0.9
v -1.2 0.2 -1.1
v -1.2 0.2 -1.2
v -1.2 0.4 1.2
v -1.2 0.4 1.1
v -1.2 0.4 0.9
v -1.2 0.4 0.8
v -1.2 0.4 -0.8
v -1.2 0.4 -0.9
v -1.2 0.4 -1.1
v -1.2 0.4 -1.2
v -1.2 0.5 1.3
v -1.2 0.5 1.2
v -1.2 0.5 1.1
v -1.2 0.5 0.9
v -1.2 0.5 0.8
v -1.2 0.5 0.7
v -1.2 0.5 -0.7
v -1.2 0.5 -0.8
v -1.2 0.5 -0.9
v -1.2 0.5 -1.1
v -1.2 0.5 -1.2
v -1.2 0.5 -1.3
v -1.2 0.6 1.2
v -1.2 0.6 0.8
v -1.2 0.6 -0.8
v -1.2 0.6 -1.2
v -1.1 0.4 1.5
v -1.1 0.4 1.3
v -1.1 0.4 -1.3
v -1.1 0.4 -1.5
v -1.1 0.5 1.3
v -1.1 0.5 -1.3
v -1.1 0.6 1.5
v -1.1 0.6 1.3
v -1.1 0.6 -1.3
v -1.1 0.6 -1.5
v -1.1 1.6 1.6
v -1.1 1.6 1.2
v -1.1 1.6 -1.2
v -1.1 1.6 -1.6
v -1.1 2.1 1.6
v -1.1 2.1 1.2
v -1.1 2.1 -1.2
v -1.1 2.1 -1.6
v -1 0.4 1.6
v -1 0.4 1.5
v -1 0.4 0.7
v -1 0.4 -0.7
v -1 0.4 -1.5
v -1 0.4 -1.6
v -1 0.5 1.3
v -1 0.5 1.2
v -1 0.5 0.8
v -1 0.5 0.7
v -1 0.5 -0.7
v -1 0.5 -0.8
v -1 0.5 -1.2
v -1 0.5 -1.3
v -1 0.6 1.6
v -1 0.6 1.5
v -1 0.6 1.3
v -1 0.6 1.2
v -1 0.6 0.8
v -1 0.6 -0.8
v -1 0.6 -1.2
v -1 0.6 -1.3
v -1 0.6 -1.5
v -1 0.6 -1.6
v -1 1.6 1.5
v -1 1.6 1.3
v -1 1.6 -1.3
v -1 1.6 -1.5
v -1 1.7 1.2
v -1 1.7 -1.2
v -1 2 1.2
v -1 2 -1.2
v -1 2.1 1.5
v -1 2.1 1.3
v -1 2.1 -1.3
v -1 2.1 -1.5
v -1 2.2 1.5
v -1 2.2 1.3
v -1 2.2 -1.3
v -1 2.2 -1.5
v -0.9 0.6 1.3
v -0.9 0.6 -1.3
v -0.9 0.7 1.3
v -0.9 0.7 -1.3
v -0.9 0.8 1.3
v -0.9 0.8 -1.3
v -0.9 1 1.3
v -0.9 1 -1.3
v -0.9 1.1 1.3
v -0.9 1.1 -1.3
v -0.9 1.3 1.3
v -0.9 1.3 -1.3
v -0.9 1.4 1.3
v -0.9 1.4 -1.3
v -0.9 1.6 1.3
v -0.9 1.6 1.2
v -0.9 1.6 -1.2
v -0.9 1.6 -1.3
v -0.9 1.7 1.2
v -0.9 1.7 -1.2
v 0.7 1.6 1.6
v 0.7 1.6 1.4
v 0.7 1.6 -1.4
v 0.7 1.6 -1.6
v 0.7 1.7 1.5
v 0.7 1.7 1.4
v 0.7 1.7 -1.4
v 0.7 1.7 -1.5
v 0.7 2 1.5
v 0.7 2 1.3
v 0.7 2 -1.3
v 0.7 2 -1.5
v 0.7 2.1 1.6
v 0.7 2.1 1.3
v 0.7 2.1 -1.3
v 0.7 2.1 -1.6
v 0.8 0.4 1.6
v 0.8 0.4 1.5
v 0.8 0.4 -1.5
v 0.8 0.4 -1.6
v 0.8 0.6 1.6
v 0.8 0.6 1.5
v 0.8 0.6 1.4
v 0.8 0.6 -1.4
v 0.8 0.6 -1.5
v 0.8 0.6 -1.6
v 0.8 0.7 1.4
v 0.8 0.7 1.3
v 0.8 0.7 -1.3
v 0.8 0.7 -1.4
v 0.8 0.8 1.4
v 0.8 0.8 1.3
v 0.8 0.8 -1.3
v 0.8 0.8 -1.4
v 0.8 1 1.4
v 0.8 1 1.3
v 0.8 1 -1.3
v 0.8 1 -1.4
v 0.8 1.1 1.4
v 0.8 1.1 1.3
v 0.8 1.1 -1.3
v 0.8 1.1 -1.4
v 0.8 1.3 1.4
v 0.8 1.3 1.3
v 0.8 1.3 -1.3
v 0.8 1.3 -1.4
v 0.8 1.4 1.4
v 0.8 1.4 1.3
v 0.8 1.4 -1.3
v 0.8 1.4 -1.4
v 0.8 1.6 1.5
v 0.8 1.6 1.4
v 0.8 1.6 1.3
v 0.8 1.6 1.2
v 0.8 1.6 -1.2
v 0.8 1.6 -1.3
v 0.8 1.6 -1.4
v 0.8 1.6 -1.5
v 0.8 1.7 1.2
v 0.8 1.7 -1.2
v 0.8 2 1.2
v 0.8 2 -1.2
v 0.8 2.1 1.5
v 0.8 2.1 1.3
v 0.8 2.1 1.2
v 0.8 2.1 -1.2
v 0.8 2.1 -1.3
v 0.8 2.1 -1.5
v 0.8 2.2 1.5
v 0.8 2.2 1.3
v 0.8 2.2 -1.3
v 0.8 2.2 -1.5
v 1 0 1.2
v 1 0 0.8
v 1 0 -0.8
v 1 0 -1.2
v 1 0.1 1.3
v 1 0.1 1.2
v 1 0.1 0.8
v 1 0.1 0.7
v 1 0.1 -0.7
v 1 0.1 -0.8
v 1 0.1 -1.2
v 1 0.1 -1.3
v 1 0.3 1.1
v 1 0.3 0.9
v 1 0.3 -0.9
v 1 0.3 -1.1
v 1 0.4 1.3
v 1 0.4 1.1
v 1 0.4 0.9
v 1 0.4 0.7
v 1 0.4 -0.7
v 1 0.4 -0.9
v 1 0.4 -1.1
v 1 0.4 -1.3
v -1 0 1.2
v -1 0 0.8
v -1 0 -0.8
v -1 0 -1.2
v -1 0.1 1.3
v -1 0.1 1.2
v -1 0.1 0.8
v -1 0.1 0.7
v -1 0.1 -0.7
v -1 0.1 -0.8
v -1 0.1 -1.2
v -1 0.1 -1.3
v -1 0.3 1.1
v -1 0.3 0.9
v -1 0.3 -0.9
v -1 0.3 -1.1
v -1 0.4 1.3
v -1 0.4 1.1
v -1 0.4 0.9
v -1 0.4 0.7
v -1 0.4 -0.7
v -1 0.4 -0.9
v -1 0.4 -1.1
v -1 0.4 -1.3
v -0.8 0.4 1.6
v -0.8 0.4 1.5
v -0.8 0.4 -1.5
v -0.8 0.4 -1.6
v -0.8 0.6 1.6
v -0.8 0.6 1.5
v -0.8 0.6 1.4
v -0.8 0.6 -1.4
v -0.8 0.6 -1.5
v -0.8 0.6 -1.6
v -0.8 0.7 1.4
v -0.8 0.7 1.3
v -0.8 0.7 -1.3
v -0.8 0.7 -1.4
v -0.8 0.8 1.4
v -0.8 0.8 1.3
v -0.8 0.8 -1.3
v -0.8 0.8 -1.4
v -0.8 1 1.4
v -0.8 1 1.3
v -0.8 1 -1.3
v -0.8 1 -1.4
v -0.8 1.1 1.4
v -0.8 1.1 1.3
v -0.8 1.1 -1.3
v -0.8 1.1 -1.4
v -0.8 1.3 1.4
v -0.8 1.3 1.3
v -0.8 1.3 -1.3
v -0.8 1.3 -1.4
v -0.8 1.4 1.4
v -0.8 1.4 1.3
v -0.8 1.4 -1.3
v -0.8 1.4 -1.4
v -0.8 1.6 1.5
v -0.8 1.6 1.4
v -0.8 1.6 1.3
v -0.8 1.6 1.2
v -0.8 1.6 -1.2
v -0.8 1.6 -1.3
v -0.8 1.6 -1.4
v -0.8 1.6 -1.5
v -0.8 1.7 1.2
v -0.8 1.7 -1.2
v -0.8 2 1.2
v -0.8 2 -1.2
v -0.8 2.1 1.5
v -0.8 2.1 1.3
v -0.8 2.1 1.2
v -0.8 2.1 -1.2
v -0.8 2.1 -1.3
v -0.8 2.1 -1.5
v -0.8 2.2 1.5
v -0.8 2.2 1.3
v -0.8 2.2 -1.3
v -0.8 2.2 -1.5
v -0.7 1.6 1.6
v -0.7 1.6 1.4
v -0.7 1.6 -1.4
v -0.7 1.6 -1.6
v -0.7 1.7 1.5
v -0.7 1.7 1.4
v -0.7 1.7 -1.4
v -0.7 1.7 -1.5
v -0.7 2 1.5
v -0.7 2 1.3
v -0.7 2 -1.3
v -0.7 2 -1.5
v -0.7 2.1 1.6
v -0.7 2.1 1.3
v -0.7 2.1 -1.3
v -0.7 2.1 -1.6
v 0.9 0.6 1.3
v 0.9 0.6 -1.3
v 0.9 0.7 1.3
v 0.9 0.7 -1.3
v 0.9 0.8 1.3
v 0.9 0.8 -1.3
v 0.9 1 1.3
v 0.9 1 -1.3
v 0.9 1.1 1.3
v 0.9 1.1 -1.3
v 0.9 1.3 1.3
v 0.9 1.3 -1.3
v 0.9 1.4 1.3
v 0.9 1.4 -1.3
v 0.9 1.6 1.3
v 0.9 1.6 1.2
v 0.9 1.6 -1.2
v 0.9 1.6 -1.3
v 0.9 1.7 1.2
v 0.9 1.7 -1.2
v 1 0.4 1.6
v 1 0.4 1.5
v 1 0.4 0.7
v 1 0.4 -0.7
v 1 0.4 -1.5
v 1 0.4 -1.6
v 1 0.5 1.3
v 1 0.5 1.2
v 1 0.5 0.8
v 1 0.5 0.7
v 1 0.5 -0.7
v 1 0.5 -0.8
v 1 0.5 -1.2
v 1 0.5 -1.3
v 1 0.6 1.6
v 1 0.6 1.5
v 1 0.6 1.3
v 1 0.6 1.2
v 1 0.6 0.8
v 1 0.6 -0.8
v 1 0.6 -1.2
v 1 0.6 -1.3
v 1 0.6 -1.5
v 1 0.6 -1.6
v 1 1.6 1.5
v 1 1.6 1.3
v 1 1.6 -1.3
v 1 1.6 -1.5
v 1 1.7 1.2
v 1 1.7 -1.2
v 1 2 1.2
v 1 2 -1.2
v 1 2.1 1.5
v 1 2.1 1.3
v 1 2.1 -1.3
v 1 2.1 -1.5
v 1 2.2 1.5
v 1 2.2 1.3
v 1 2.2 -1.3
v 1 2.2 -1.5
v 1.1 0.4 1.5
v 1.1 0.4 1.3
v 1.1 0.4 -1.3
v 1.1 0.4 -1.5
v 1.1 0.5 1.3
v 1.1 0.5 -1.3
v 1.1 0.6 1.5
v 1.1 0.6 1.3
v 1.1 0.6 -1.3
v 1.1 0.6 -1.5
v 1.1 1.6 1.6
v 1.1 1.6 1.2
v 1.1 1.6 -1.2
v 1.1 1.6 -1.6
v 1.1 2.1 1.6
v 1.1 2.1 1.2
v 1.1 2.1 -1.2
v 1.1 2.1 -1.6
v 1.2 0 1.2
v 1.2 0 0.8
v 1.2 0 -0.8
v 1.2 0 -1.2
v 1.2 0.1 1.3
v 1.2 0.1 1.2
v 1.2 0.1 1.1
v 1.2 0.1 0.9
v 1.2 0.1 0.8
v 1.2 0.1 0.7
v 1.2 0.1 -0.7
v 1.2 0.1 -0.8
v 1.2 0.1 -0.9
v 1.2 0.1 -1.1
v 1.2 0.1 -1.2
v 1.2 0.1 -1.3
v 1.2 0.2 1.2
v 1.2 0.2 1.1
v 1.2 0.2 0.9
v 1.2 0.2 0.8
v 1.2 0.2 -0.8
v 1.2 0.2 -0.9
v 1.2 0.2 -1.1
v 1.2 0.2 -1.2
v 1.2 0.4 1.2
v 1.2 0.4 1.1
v 1.2 0.4 0.9
v 1.2 0.4 0.8
v 1.2 0.4 -0.8
v 1.2 0.4 -0.9
v 1.2 0.4 -1.1
v 1.2 0.4 -1.2
v 1.2 0.5 1.3
v 1.2 0.5 1.2
v 1.2 0.5 1.1
v 1.2 0.5 0.9
v 1.2 0.5 0.8
v 1.2 0.5 0.7
v 1.2 0.5 -0.7
v 1.2 0.5 -0.8
v 1.2 0.5 -0.9
v 1.2 0.5 -1.1
v 1.2 0.5 -1.2
v 1.2 0.5 -1.3
v 1.2 0.6 1.2
v 1.2 0.6 0.8
v 1.2 0.6 -0.8
v 1.2 0.6 -1.2
v 1.3 0.2 1.1
v 1.3 0.2 0.9
v 1.3 0.2 -0.9
v 1.3 0.2 -1.1
v 1.3 0.4 1.1
v 1.3 0.4 0.9
v 1.3 0.4 -0.9
v 1.3 0.4 -1.1
v -1.1 1.6 1.6
v -1.1 2.1 1.6
v -1 0.4 1.6
v -1 0.6 1.6
v -0.8 0.4 1.6
v -0.8 0.6 1.6
v -0.7 1.6 1.6
v -0.7 2.1 1.6
v 0.7 1.6 1.6
v 0.7 2.1 1.6
v 0.8 0.4 1.6
v 0.8 0.6 1.6
v 1 0.4 1.6
v 1 0.6 1.6
v 1.1 1.6 1.6
v 1.1 2.1 1.6
v -1.1 0.4 1.5
v -1.1 0.6 1.5
v -1 0.4 1.5
v -1 0.6 1.5
v -1 1.6 1.5
v -1 2.1 1.5
v -1 2.2 1.5
v -0.8 0.4 1.5
v -0.8 0.6 1.5
v -0.8 1.6 1.5
v -0.8 2.1 1.5
v -0.8 2.2 1.5
v -0.7 1.7 1.5
v -0.7 2 1.5
v 0.7 1.7 1.5
v 0.7 2 1.5
v 0.8 0.4 1.5
v 0.8 0.6 1.5
v 0.8 1.6 1.5
v 0.8 2.1 1.5
v 0.8 2.2 1.5
v 1 0.4 1.5
v 1 0.6 1.5
v 1 1.6 1.5
v 1 2.1 1.5
v 1 2.2 1.5
v 1.1 0.4 1.5
v 1.1 0.6 1.5
v -0.8 0.6 1.4
v -0.8 0.7 1.4
v -0.8 0.8 1.4
v -0.8 1 1.4
v -0.8 1.1 1.4
v -0.8 1.3 1.4
v -0.8 1.4 1.4
v -0.8 1.6 1.4
v -0.7 1.6 1.4
v -0.7 1.7 1.4
v 0.7 1.6 1.4
v 0.7 1.7 1.4
v 0.8 0.6 1.4
v 0.8 0.7 1.4
v 0.8 0.8 1.4
v 0.8 1 1.4
v 0.8 1.1 1.4
v 0.8 1.3 1.4
v 0.8 1.4 1.4
v 0.8 1.6 1.4
v -1.2 0.1 1.3
v -1.2 0.5 1.3
v -1.1 0.4 1.3
v -1.1 0.5 1.3
v -1 0.1 1.3
v -1 0.4 1.3
v 1 0.1 1.3
v 1 0.4 1.3
v 1.1 0.4 1.3
v 1.1 0.5 1.3
v 1.2 0.1 1.3
v 1.2 0.5 1.3
v -1.2 0 1.2
v -1.2 0.1 1.2
v -1.2 0.5 1.2
v -1.2 0.6 1.2
v -1 0 1.2
v -1 0.1 1.2
v -1 0.5 1.2
v -1 0.6 1.2
v 1 0 1.2
v 1 0.1 1.2
v 1 0.5 1.2
v 1 0.6 1.2
v 1.2 0 1.2
v 1.2 0.1 1.2
v 1.2 0.5 1.2
v 1.2 0.6 1.2
v -1.3 0.2 1.1
v -1.3 0.4 1.1
v -1.2 0.2 1.1
v -1.2 0.4 1.1
v -1 0.3 1.1
v -1 0.4 1.1
v 1 0.3 1.1
v 1 0.4 1.1
v 1.2 0.2 1.1
v 1.2 0.4 1.1
v 1.3 0.2 1.1
v 1.3 0.4 1.1
v -1.2 0.1 -0.7
v -1.2 0.5 -0.7
v -1 0.1 -0.7
v -1 0.4 -0.7
v -1 0.5 -0.7
v 1 0.1 -0.7
v 1 0.4 -0.7
v 1 0.5 -0.7
v 1.2 0.1 -0.7
v 1.2 0.5 -0.7
v -1.2 0 -0.8
v -1.2 0.1 -0.8
v -1.2 0.5 -0.8
v -1.2 0.6 -0.8
v -1 0 -0.8
v -1 0.1 -0.8
v -1 0.5 -0.8
v -1 0.6 -0.8
v 1 0 -0.8
v 1 0.1 -0.8
v 1 0.5 -0.8
v 1 0.6 -0.8
v 1.2 0 -0.8
v 1.2 0.1 -0.8
v 1.2 0.5 -0.8
v 1.2 0.6 -0.8
v -1.3 0.2 -0.9
v -1.3 0.4 -0.9
v -1.2 0.2 -0.9
v -1.2 0.4 -0.9
v -1 0.3 -0.9
v -1 0.4 -0.9
v 1 0.3 -0.9
v 1 0.4 -0.9
v 1.2 0.2 -0.9
v 1.2 0.4 -0.9
v 1.3 0.2 -0.9
v 1.3 0.4 -0.9
v -1.1 1.6 -1.2
v -1.1 2.1 -1.2
v -1 1.7 -1.2
v -1 2 -1.2
v -0.9 1.6 -1.2
v -0.9 1.7 -1.2
v -0.8 2 -1.2
v -0.8 2.1 -1.2
v 0.8 2 -1.2
v 0.8 2.1 -1.2
v 0.9 1.6 -1.2
v 0.9 1.7 -1.2
v 1 1.7 -1.2
v 1 2 -1.2
v 1.1 1.6 -1.2
v 1.1 2.1 -1.2
v -1.1 0.5 -1.3
v -1.1 0.6 -1.3
v -1 0.5 -1.3
v -1 0.6 -1.3
v -1 1.6 -1.3
v -1 2.1 -1.3
v -1 2.2 -1.3
v -0.9 0.6 -1.3
v -0.9 0.7 -1.3
v -0.9 0.8 -1.3
v -0.9 1 -1.3
v -0.9 1.1 -1.3
v -0.9 1.3 -1.3
v -0.9 1.4 -1.3
v -0.9 1.6 -1.3
v -0.8 0.7 -1.3
v -0.8 0.8 -1.3
v -0.8 1 -1.3
v -0.8 1.1 -1.3
v -0.8 1.3 -1.3
v -0.8 1.4 -1.3
v -0.8 1.6 -1.3
v -0.8 2.1 -1.3
v -0.8 2.2 -1.3
v -0.7 1.6 -1.3
v -0.7 1.7 -1.3
v -0.7 2 -1.3
v -0.7 2.1 -1.3
v 0.7 1.6 -1.3
v 0.7 1.7 -1.3
v 0.7 2 -1.3
v 0.7 2.1 -1.3
v 0.8 0.7 -1.3
v 0.8 0.8 -1.3
v 0.8 1 -1.3
v 0.8 1.1 -1.3
v 0.8 1.3 -1.3
v 0.8 1.4 -1.3
v 0.8 1.6 -1.3
v 0.8 2.1 -1.3
v 0.8 2.2 -1.3
v 0.9 0.6 -1.3
v 0.9 0.7 -1.3
v 0.9 0.8 -1.3
v 0.9 1 -1.3
v 0.9 1.1 -1.3
v 0.9 1.3 -1.3
v 0.9 1.4 -1.3
v 0.9 1.6 -1.3
v 1 0.5 -1.3
v 1 0.6 -1.3
v 1 1.6 -1.3
v 1 2.1 -1.3
v 1 2.2 -1.3
v 1.1 0.5 -1.3
v 1.1 0.6 -1.3
v -1.1 0.5 1.3
v -1.1 0.6 1.3
v -1 0.5 1.3
v -1 0.6 1.3
v -1 1.6 1.3
v -1 2.1 1.3
v -1 2.2 1.3
v -0.9 0.6 1.3
v -0.9 0.7 1.3
v -0.9 0.8 1.3
v -0.9 1 1.3
v -0.9 1.1 1.3
v -0.9 1.3 1.3
v -0.9 1.4 1.3
v -0.9 1.6 1.3
v -0.8 0.7 1.3
v -0.8 0.8 1.3
v -0.8 1 1.3
v -0.8 1.1 1.3
v -0.8 1.3 1.3
v -0.8 1.4 1.3
v -0.8 1.6 1.3
v -0.8 2.1 1.3
v -0.8 2.2 1.3
v -0.7 1.6 1.3
v -0.7 1.7 1.3
v -0.7 2 1.3
v -0.7 2.1 1.3
v 0.7 1.6 1.3
v 0.7 1.7 1.3
v 0.7 2 1.3
v 0.7 2.1 1.3
v 0.8 0.7 1.3
v 0.8 0.8 1.3
v 0.8 1 1.3
v 0.8 1.1 1.3
v 0.8 1.3 1.3
v 0.8 1.4 1.3
v 0.8 1.6 1.3
v 0.8 2.1 1.3
v 0.8 2.2 1.3
v 0.9 0.6 1.3
v 0.9 0.7 1.3
v 0.9 0.8 1.3
v 0.9 1 1.3
v 0.9 1.1 1.3
v 0.9 1.3 1.3
v 0.9 1.4 1.3
v 0.9 1.6 1.3
v 1 0.5 1.3
v 1 0.6 1.3
v 1 1.6 1.3
v 1 2.1 1.3
v 1 2.2 1.3
v 1.1 0.5 1.3
v 1.1 0.6 1.3
v -1.1 1.6 1.2
v -1.1 2.1 1.2
v -1 1.7 1.2
v -1 2 1.2
v -0.9 1.6 1.2
v -0.9 1.7 1.2
v -0.8 2 1.2
v -0.8 2.1 1.2
v 0.8 2 1.2
v 0.8 2.1 1.2
v 0.9 1.6 1.2
v 0.9 1.7 1.2
v 1 1.7 1.2
v 1 2 1.2
v 1.1 1.6 1.2
v 1.1 2.1 1.2
v -1.3 0.2 0.9
v -1.3 0.4 0.9
v -1.2 0.2 0.9
v -1.2 0.4 0.9
v -1 0.3 0.9
v -1 0.4 0.9
v 1 0.3 0.9
v 1 0.4 0.9
v 1.2 0.2 0.9
v 1.2 0.4 0.9
v 1.3 0.2 0.9
v 1.3 0.4 0.9
v -1.2 0 0.8
v -1.2 0.1 0.8
v -1.2 0.5 0.8
v -1.2 0.6 0.8
v -1 0 0.8
v -1 0.1 0.8
v -1 0.5 0.8
v -1 0.6 0.8
v 1 0 0.8
v 1 0.1 0.8
v 1 0.5 0.8
v 1 0.6 0.8
v 1.2 0 0.8
v 1.2 0.1 0.8
v 1.2 0.5 0.8
v 1.2 0.6 0.8
v -1.2 0.1 0.7
v -1.2 0.5 0.7
v -1 0.1 0.7
v -1 0.4 0.7
v -1 0.5 0.7
v 1 0.1 0.7
v 1 0.4 0.7
v 1 0.5 0.7
v 1.2 0.1 0.7
v 1.2 0.5 0.7
v -1.3 0.2 -1.1
v -1.3 0.4 -1.1
v -1.2 0.2 -1.1
v -1.2 0.4 -1.1
v -1 0.3 -1.1
v -1 0.4 -1.1
v 1 0.3 -1.1
v 1 0.4 -1.1
v 1.2 0.2 -1.1
v 1.2 0.4 -1.1
v 1.3 0.2 -1.1
v 1.3 0.4 -1.1
v -1.2 0 -1.2
v -1.2 0.1 -1.2
v -1.2 0.5 -1.2
v -1.2 0.6 -1.2
v -1 0 -1.2
v -1 0.1 -1.2
v -1 0.5 -1.2
v -1 0.6 -1.2
v 1 0 -1.2
v 1 0.1 -1.2
v 1 0.5 -1.2
v 1 0.6 -1.2
v 1.2 0 -1.2
v 1.2 0.1 -1.2
v 1.2 0.5 -1.2
v 1.2 0.6 -1.2
v -1.2 0.1 -1.3
v -1.2 0.5 -1.3
v -1.1 0.4 -1.3
v -1.1 0.5 -1.3
v -1 0.1 -1.3
v -1 0.4 -1.3
v 1 0.1 -1.3
v 1 0.4 -1.3
v 1.1 0.4 -1.3
v 1.1 0.5 -1.3
v 1.2 0.1 -1.3
v 1.2 0.5 -1.3
v -0.8 0.6 -1.4
v -0.8 0.7 -1.4
v -0.8 0.8 -1.4
v -0.8 1 -1.4
v -0.8 1.1 -1.4
v -0.8 1.3 -1.4
v -0.8 1.4 -1.4
v -0.8 1.6 -1.4
v -0.7 1.6 -1.4
v -0.7 1.7 -1.4
v 0.7 1.6 -1.4
v 0.7 1.7 -1.4
v 0.8 0.6 -1.4
v 0.8 0.7 -1.4
v 0.8 0.8 -1.4
v 0.8 1 -1.4
v 0.8 1.1 -1.4
v 0.8 1.3 -1.4
v 0.8 1.4 -1.4
v 0.8 1.6 -1.4
v -1.1 0.4 -1.5
v -1.1 0.6 -1.5
v -1 0.4 -1.5
v -1 0.6 -1.5
v -1 1.6 -1.5
v -1 2.1 -1.5
v -1 2.2 -1.5
v -0.8 0.4 -1.5
v -0.8 0.6 -1.5
v -0.8 1.6 -1.5
v -0.8 2.1 -1.5
v -0.8 2.2 -1.5
v -0.7 1.7 -1.5
v -0.7 2 -1.5
v 0.7 1.7 -1.5
v 0.7 2 -1.5
v 0.8 0.4 -1.5
v 0.8 0.6 -1.5
v 0.8 1.6 -1.5
v 0.8 2.1 -1.5
v 0.8 2.2 -1.5
v 1 0.4 -1.5
v 1 0.6 -1.5
v 1 1.6 -1.5
v 1 2.1 -1.5
v 1 2.2 -1.5
v 1.1 0.4 -1.5
v 1.1 0.6 -1.5
v -1.1 1.6 -1.6
v -1.1 2.1 -1.6
v -1 0.4 -1.6
v -1 0.6 -1.6
v -0.8 0.4 -1.6
v -0.8 0.6 -1.6
v -0.7 1.6 -1.6
v -0.7 2.1 -1.6
v 0.7 1.6 -1.6
v 0.7 2.1 -1.6
v 0.8 0.4 -1.6
v 0.8 0.6 -1.6
v 1 0.4 -1.6
v 1 0.6 -1.6
v 1.1 1.6 -1.6
v 1.1 2.1 -1.6
v -1.2 0 1.2
v -1 0 1.2
v 1 0 1.2
v 1.2 0 1.2
v -1.2 0 0.8
v -1 0 0.8
v 1 0 0.8
v 1.2 0 0.8
v -1.2 0 -0.8
v -1 0 -0.8
v 1 0 -0.8
v 1.2 0 -0.8
v -1.2 0 -1.2
v -1 0 -1.2
v 1 0 -1.2
v 1.2 0 -1.2
v -1.2 0.1 1.3
v -1 0.1 1.3
v 1 0.1 1.3
v 1.2 0.1 1.3
v -1.2 0.1 1.2
v -1 0.1 1.2
v 1 0.1 1.2
v 1.2 0.1 1.2
v -1.2 0.1 0.8
v -1 0.1 0.8
v 1 0.1 0.8
v 1.2 0.1 0.8
v -1.2 0.1 0.7
v -1 0.1 0.7
v 1 0.1 0.7
v 1.2 0.1 0.7
v -1.2 0.1 -0.7
v -1 0.1 -0.7
v 1 0.1 -0.7
v 1.2 0.1 -0.7
v -1.2 0.1 -0.8
v -1 0.1 -0.8
v 1 0.1 -0.8
v 1.2 0.1 -0.8
v -1.2 0.1 -1.2
v -1 0.1 -1.2
v 1 0.1 -1.2
v 1.2 0.1 -1.2
v -1.2 0.1 -1.3
v -1 0.1 -1.3
v 1 0.1 -1.3
v 1.2 0.1 -1.3
v -1.3 0.2 1.1
v -1.2 0.2 1.1
v 1.2 0.2 1.1
v 1.3 0.2 1.1
v -1.3 0.2 0.9
v -1.2 0.2 0.9
v 1.2 0.2 0.9
v 1.3 0.2 0.9
v -1.3 0.2 -0.9
v -1.2 0.2 -0.9
v 1.2 0.2 -0.9
v 1.3 0.2 -0.9
v -1.3 0.2 -1.1
v -1.2 0.2 -1.1
v 1.2 0.2 -1.1
v 1.3 0.2 -1.1
v -1 0.3 1.1
v 1 0.3 1.1
v -1 0.3 0.9
v 1 0.3 0.9
v -1 0.3 -0.9
v 1 0.3 -0.9
v -1 0.3 -1.1
v 1 0.3 -1.1
v -1 0.4 1.6
v -0.8 0.4 1.6
v 0.8 0.4 1.6
v 1 0.4 1.6
v -1.1 0.4 1.5
v -1 0.4 1.5
v -0.8 0.4 1.5
v 0.8 0.4 1.5
v 1 0.4 1.5
v 1.1 0.4 1.5
v -1.1 0.4 1.3
v -1 0.4 1.3
v 1 0.4 1.3
v 1.1 0.4 1.3
v -1 0.4 1.1
v 1 0.4 1.1
v -1 0.4 0.9
v 1 0.4 0.9
v -1 0.4 0.7
v 1 0.4 0.7
v -1 0.4 -0.7
v 1 0.4 -0.7
v -1 0.4 -0.9
v 1 0.4 -0.9
v -1 0.4 -1.1
v 1 0.4 -1.1
v -1.1 0.4 -1.3
v -1 0.4 -1.3
v 1 0.4 -1.3
v 1.1 0.4 -1.3
v -1.1 0.4 -1.5
v -1 0.4 -1.5
v -0.8 0.4 -1.5
v 0.8 0.4 -1.5
v 1 0.4 -1.5
v 1.1 0.4 -1.5
v -1 0.4 -1.6
v -0.8 0.4 -1.6
v 0.8 0.4 -1.6
v 1 0.4 -1.6
v -1.1 1.6 1.6
v -0.7 1.6 1.6
v 0.7 1.6 1.6
v 1.1 1.6 1.6
v -1 1.6 1.5
v -0.8 1.6 1.5
v 0.8 1.6 1.5
v 1 1.6 1.5
v -0.8 1.6 1.4
v -0.7 1.6 1.4
v 0.7 1.6 1.4
v 0.8 1.6 1.4
v -1 1.6 1.3
v -0.9 1.6 1.3
v 0.9 1.6 1.3
v 1 1.6 1.3
v -1.1 1.6 1.2
v -0.9 1.6 1.2
v 0.9 1.6 1.2
v 1.1 1.6 1.2
v -1.1 1.6 -1.2
v -0.9 1.6 -1.2
v 0.9 1.6 -1.2
v 1.1 1.6 -1.2
v -1 1.6 -1.3
v -0.9 1.6 -1.3
v 0.9 1.6 -1.3
v 1 1.6 -1.3
v -0.8 1.6 -1.4
v -0.7 1.6 -1.4
v 0.7 1.6 -1.4
v 0.8 1.6 -1.4
v -1 1.6 -1.5
v -0.8 1.6 -1.5
v 0.8 1.6 -1.5
v 1 1.6 -1.5
v -1.1 1.6 -1.6
v -0.7 1.6 -1.6
v 0.7 1.6 -1.6
v 1.1 1.6 -1.6
v -0.7 1.7 1.5
v 0.7 1.7 1.5
v -0.7 1.7 1.4
v 0.7 1.7 1.4
v -1 1.7 1.2
v -0.9 1.7 1.2
v 0.9 1.7 1.2
v 1 1.7 1.2
v -1 1.7 -1.2
v -0.9 1.7 -1.2
v 0.9 1.7 -1.2
v 1 1.7 -1.2
v -0.7 1.7 -1.4
v 0.7 1.7 -1.4
v -0.7 1.7 -1.5
v 0.7 1.7 -1.5
v -1.3 0.4 1.1
v -1.2 0.4 1.1
v 1.2 0.4 1.1
v 1.3 0.4 1.1
v -1.3 0.4 0.9
v -1.2 0.4 0.9
v 1.2 0.4 0.9
v 1.3 0.4 0.9
v -1.3 0.4 -0.9
v -1.2 0.4 -0.9
v 1.2 0.4 -0.9
v 1.3 0.4 -0.9
v -1.3 0.4 -1.1
v -1.2 0.4 -1.1
v 1.2 0.4 -1.1
v 1.3 0.4 -1.1
v -1.2 0.5 1.3
v -1.1 0.5 1.3
v -1 0.5 1.3
v 1 0.5 1.3
v 1.1 0.5 1.3
v 1.2 0.5 1.3
v -1.2 0.5 1.2
v -1 0.5 1.2
v 1 0.5 1.2
v 1.2 0.5 1.2
v -1.2 0.5 0.8
v -1 0.5 0.8
v 1 0.5 0.8
v 1.2 0.5 0.8
v -1.2 0.5 0.7
v -1 0.5 0.7
v 1 0.5 0.7
v 1.2 0.5 0.7
v -1.2 0.5 -0.7
v -1 0.5 -0.7
v 1 0.5 -0.7
v 1.2 0.5 -0.7
v -1.2 0.5 -0.8
v -1 0.5 -0.8
v 1 0.5 -0.8
v 1.2 0.5 -0.8
v -1.2 0.5 -1.2
v -1 0.5 -1.2
v 1 0.5 -1.2
v 1.2 0.5 -1.2
v -1.2 0.5 -1.3
v -1.1 0.5 -1.3
v -1 0.5 -1.3
v 1 0.5 -1.3
v 1.1 0.5 -1.3
v 1.2 0.5 -1.3
v -1 0.6 1.6
v -0.8 0.6 1.6
v 0.8 0.6 1.6
v 1 0.6 1.6
v -1.1 0.6 1.5
v -1 0.6 1.5
v -0.8 0.6 1.5
v 0.8 0.6 1.5
v 1 0.6 1.5
v 1.1 0.6 1.5
v -0.8 0.6 1.4
v 0.8 0.6 1.4
v -1.1 0.6 1.3
v -1 0.6 1.3
v -0.9 0.6 1.3
v 0.9 0.6 1.3
v 1 0.6 1.3
v 1.1 0.6 1.3
v -1.2 0.6 1.2
v -1 0.6 1.2
v 1 0.6 1.2
v 1.2 0.6 1.2
v -1.2 0.6 0.8
v -1 0.6 0.8
v 1 0.6 0.8
v 1.2 0.6 0.8
v -1.2 0.6 -0.8
v -1 0.6 -0.8
v 1 0.6 -0.8
v 1.2 0.6 -0.8
v -1.2 0.6 -1.2
v -1 0.6 -1.2
v 1 0.6 -1.2
v 1.2 0.6 -1.2
v -1.1 0.6 -1.3
v -1 0.6 -1.3
v -0.9 0.6 -1.3
v 0.9 0.6 -1.3
v 1 0.6 -1.3
v 1.1 0.6 -1.3
v -0.8 0.6 -1.4
v 0.8 0.6 -1.4
v -1.1 0.6 -1.5
v -1 0.6 -1.5
v -0.8 0.6 -1.5
v 0.8 0.6 -1.5
v 1 0.6 -1.5
v 1.1 0.6 -1.5
v -1 0.6 -1.6
v -0.8 0.6 -1.6
v 0.8 0.6 -1.6
v 1 0.6 -1.6
v -0.8 0.7 1.3
v 0.8 0.7 1.3
v -0.8 0.7 -1.3
v 0.8 0.7 -1.3
v -0.7 2 1.5
v 0.7 2 1.5
v -0.7 2 1.3
v 0.7 2 1.3
v -1 2 1.2
v -0.8 2 1.2
v 0.8 2 1.2
v 1 2 1.2
v -1 2 -1.2
v -0.8 2 -1.2
v 0.8 2 -1.2
v 1 2 -1.2
v -0.7 2 -1.3
v 0.7 2 -1.3
v -0.7 2 -1.5
v 0.7 2 -1.5
v -1.1 2.1 1.6
v -0.7 2.1 1.6
v 0.7 2.1 1.6
v 1.1 2.1 1.6
v -1 2.1 1.5
v -0.8 2.1 1.5
v 0.8 2.1 1.5
v 1 2.1 1.5
v -1 2.1 1.3
v -0.8 2.1 1.3
v -0.7 2.1 1.3
v 0.7 2.1 1.3
v 0.8 2.1 1.3
v 1 2.1 1.3
v -1.1 2.1 1.2
v -0.8 2.1 1.2
v 0.8 2.1 1.2
v 1.1 2.1 1.2
v -1.1 2.1 -1.2
v -0.8 2.1 -1.2
v 0.8 2.1 -1.2
v 1.1 2.1 -1.2
v -1 2.1 -1.3
v -0.8 2.1 -1.3
v -0.7 2.1 -1.3
v 0.7 2.1 -1.3
v 0.8 2.1 -1.3
v 1 2.1 -1.3
v -1 2.1 -1.5
v -0.8 2.1 -1.5
v 0.8 2.1 -1.5
v 1 2.1 -1.5
v -1.1 2.1 -1.6
v -0.7 2.1 -1.6
v 0.7 2.1 -1.6
v 1.1 2.1 -1.6
v -1 2.2 1.5
v -0.8 2.2 1.5
v 0.8 2.2 1.5
v 1 2.2 1.5
v -1 2.2 1.3
v -0.8 2.2 1.3
v 0.8 2.2 1.3
v 1 2.2 1.3
v -1 2.2 -1.3
v -0.8 2.2 -1.3
v 0.8 2.2 -1.3
v 1 2.2 -1.3
v -1 2.2 -1.5
v -0.8 2.2 -1.5
v 0.8 2.2 -1.5
v 1 2.2 -1.5

# faces
f 5/3/1 2/3/1 1/3/1
f 6/3/1 2/3/1 5/3/1
f 7/3/1 4/3/1 3/3/1
f 8/3/1 4/3/1 7/3/1
f 14/1/1 10/1/1 9/1/1
f 15/1/1 10/1/1 14/1/1
f 16/1/1 10/1/1 15/1/1
f 17/1/1 10/1/1 16/1/1
f 20/1/1 12/1/1 11/1/1
f 21/1/1 12/1/1 20/1/1
f 22/1/1 12/1/1 21/1/1
f 23/1/1 12/1/1 22/1/1
f 25/1/1 14/1/1 13/1/1
f 25/1/1 15/1/1 14/1/1
f 26/5/1 16/5/1 15/5/1
f 26/1/1 15/1/1 25/1/1
f 27/1/1 18/1/1 17/1/1
f 27/5/1 16/5/1 26/5/1
f 27/1/1 17/1/1 16/1/1
f 28/1/1 18/1/1 27/1/1
f 29/1/1 20/1/1 19/1/1
f 29/1/1 21/1/1 20/1/1
f 30/5/1 22/5/1 21/5/1
f 30/1/1 21/1/1 29/1/1
f 31/1/1 24/1/1 23/1/1
f 31/5/1 22/5/1 30/5/1
f 31/1/1 23/1/1 22/1/1
f 32/1/1 24/1/1 31/1/1
f 33/5/1 26/5/1 25/5/1
f 33/1/1 25/1/1 13/1/1
f 34/5/1 26/5/1 33/5/1
f 35/5/1 28/5/1 27/5/1
f 36/1/1 18/1/1 28/1/1
f 36/5/1 28/5/1 35/5/1
f 37/5/1 30/5/1 29/5/1
f 37/1/1 29/1/1 19/1/1
f 38/5/1 30/5/1 37/5/1
f 39/5/1 32/5/1 31/5/1
f 40/1/1 24/1/1 32/1/1
f 40/5/1 32/5/1 39/5/1
f 41/1/1 34/1/1 33/1/1
f 41/1/1 33/1/1 13/1/1
f 42/1/1 34/1/1 41/1/1
f 43/5/1 35/5/1 34/5/1
f 43/1/1 34/1/1 42/1/1
f 44/1/1 36/1/1 35/1/1
f 44/5/1 35/5/1 43/5/1
f 45/1/1 18/1/1 36/1/1
f 45/1/1 36/1/1 44/1/1
f 46/1/1 18/1/1 45/1/1
f 47/1/1 38/1/1 37/1/1
f 47/1/1 37/1/1 19/1/1
f 48/1/1 38/1/1 47/1/1
f 49/5/1 39/5/1 38/5/1
f 49/1/1 38/1/1 48/1/1
f 50/1/1 40/1/1 39/1/1
f 50/5/1 39/5/1 49/5/1
f 51/1/1 24/1/1 40/1/1
f 51/1/1 40/1/1 50/1/1
f 52/1/1 24/1/1 51/1/1
f 53/1/1 44/1/1 43/1/1
f 53/1/1 43/1/1 42/1/1
f 53/1/1 45/1/1 44/1/1
f 54/1/1 45/1/1 53/1/1
f 55/1/1 51/1/1 50/1/1
f 55/1/1 50/1/1 49/1/1
f 55/1/1 49/1/1 48/1/1
f 56/1/1 51/1/1 55/1/1
f 61/3/1 58/3/1 57/3/1
f 62/3/1 60/3/1 59/3/1
f 63/3/1 61/3/1 57/3/1
f 64/3/1 61/3/1 63/3/1
f 65/3/1 60/3/1 62/3/1
f 66/3/1 60/3/1 65/3/1
f 71/3/1 68/3/1 67/3/1
f 72/3/1 68/3/1 71/3/1
f 73/3/1 70/3/1 69/3/1
f 74/3/1 70/3/1 73/3/1
f 84/3/1 78/3/1 77/3/1
f 85/3/1 78/3/1 84/3/1
f 89/3/1 76/3/1 75/3/1
f 90/3/1 76/3/1 89/3/1
f 91/3/1 82/3/1 81/3/1
f 92/3/1 82/3/1 91/3/1
f 93/3/1 84/3/1 83/3/1
f 93/3/1 85/3/1 84/3/1
f 93/3/1 86/3/1 85/3/1
f 94/3/1 86/3/1 93/3/1
f 95/3/1 88/3/1 87/3/1
f 96/3/1 88/3/1 95/3/1
f 97/3/1 80/3/1 79/3/1
f 98/3/1 80/3/1 97/3/1
f 99/3/1 91/3/1 90/3/1
f 100/3/1 91/3/1 99/3/1
f 101/3/1 97/3/1 96/3/1
f 102/3/1 97/3/1 101/3/1
f 105/3/1 104/3/1 103/3/1
f 106/3/1 104/3/1 105/3/1
f 111/3/1 108/3/1 107/3/1
f 112/3/1 108/3/1 111/3/1
f 113/3/1 110/3/1 109/3/1
f 114/3/1 110/3/1 113/3/1
f 117/4/1 116/4/1 115/4/1
f 118/4/1 116/4/1 117/4/1
f 119/5/1 118/5/1 117/5/1
f 120/5/1 118/5/1 119/5/1
f 121/4/1 120/4/1 119/4/1
f 122/4/1 120/4/1 121/4/1
f 123/5/1 122/5/1 121/5/1
f 124/5/1 122/5/1 123/5/1
f 125/4/1 124/4/1 123/4/1
f 126/4/1 124/4/1 125/4/1
f 127/5/1 126/5/1 125/5/1
f 128/5/1 126/5/1 127/5/1
f 129/4/1 128/4/1 127/4/1
f 130/4/1 128/4/1 129/4/1
f 131/4/1 128/4/1 130/4/1
f 132/4/1 128/4/1 131/4/1
f 133/5/1 131/5/1 130/5/1
f 134/5/1 131/5/1 133/5/1
f 139/3/1 136/3/1 135/3/1
f 140/3/1 136/3/1 139/3/1
f 141/3/1 138/3/1 137/3/1
f 142/3/1 138/3/1 141/3/1
f 143/3/1 139/3/1 135/3/1
f 146/3/1 138/3/1 142/3/1
f 147/3/1 144/3/1 143/3/1
f 147/3/1 143/3/1 135/3/1
f 148/3/1 144/3/1 147/3/1
f 149/3/1 146/3/1 145/3/1
f 150/3/1 138/3/1 146/3/1
f 150/3/1 146/3/1 149/3/1
f 155/3/1 152/3/1 151/3/1
f 156/3/1 152/3/1 155/3/1
f 159/3/1 154/3/1 153/3/1
f 160/3/1 154/3/1 159/3/1
f 161/3/1 157/3/1 156/3/1
f 164/3/1 159/3/1 158/3/1
f 165/3/1 161/3/1 156/3/1
f 166/5/1 163/5/1 162/5/1
f 167/5/1 163/5/1 166/5/1
f 168/3/1 159/3/1 164/3/1
f 169/3/1 165/3/1 156/3/1
f 170/4/1 167/4/1 166/4/1
f 171/4/1 167/4/1 170/4/1
f 172/3/1 159/3/1 168/3/1
f 173/3/1 169/3/1 156/3/1
f 174/5/1 171/5/1 170/5/1
f 175/5/1 171/5/1 174/5/1
f 176/3/1 159/3/1 172/3/1
f 177/3/1 173/3/1 156/3/1
f 178/4/1 175/4/1 174/4/1
f 179/4/1 175/4/1 178/4/1
f 180/3/1 159/3/1 176/3/1
f 181/3/1 177/3/1 156/3/1
f 182/5/1 179/5/1 178/5/1
f 183/5/1 179/5/1 182/5/1
f 184/3/1 159/3/1 180/3/1
f 185/3/1 181/3/1 156/3/1
f 186/3/1 181/3/1 185/3/1
f 187/4/1 183/4/1 182/4/1
f 188/4/1 183/4/1 187/4/1
f 189/4/1 183/4/1 188/4/1
f 190/4/1 183/4/1 189/4/1
f 191/3/1 159/3/1 184/3/1
f 192/3/1 159/3/1 191/3/1
f 193/3/1 188/3/1 187/3/1
f 193/5/1 189/5/1 188/5/1
f 194/3/1 190/3/1 189/3/1
f 194/5/1 189/5/1 193/5/1
f 195/3/1 193/3/1 187/3/1
f 195/3/1 194/3/1 193/3/1
f 196/3/1 190/3/1 194/3/1
f 196/3/1 194/3/1 195/3/1
f 198/3/1 195/3/1 187/3/1
f 199/3/1 195/3/1 198/3/1
f 200/3/1 190/3/1 196/3/1
f 201/3/1 190/3/1 200/3/1
f 203/3/1 198/3/1 197/3/1
f 204/3/1 198/3/1 203/3/1
f 205/3/1 202/3/1 201/3/1
f 206/3/1 202/3/1 205/3/1
f 212/1/1 208/1/1 207/1/1
f 213/1/1 208/1/1 212/1/1
f 216/1/1 210/1/1 209/1/1
f 217/1/1 210/1/1 216/1/1
f 219/1/1 214/1/1 213/1/1
f 219/1/1 212/1/1 211/1/1
f 219/1/1 213/1/1 212/1/1
f 220/1/1 214/1/1 219/1/1
f 221/1/1 218/1/1 217/1/1
f 221/1/1 217/1/1 216/1/1
f 221/1/1 216/1/1 215/1/1
f 222/1/1 218/1/1 221/1/1
f 223/1/1 219/1/1 211/1/1
f 224/1/1 219/1/1 223/1/1
f 225/1/1 214/1/1 220/1/1
f 226/1/1 214/1/1 225/1/1
f 227/1/1 221/1/1 215/1/1
f 228/1/1 221/1/1 227/1/1
f 229/1/1 218/1/1 222/1/1
f 230/1/1 218/1/1 229/1/1
f 231/1/2 232/1/2 236/1/2
f 236/1/2 232/1/2 237/1/2
f 233/1/2 234/1/2 240/1/2
f 240/1/2 234/1/2 241/1/2
f 237/1/2 238/1/2 243/1/2
f 235/1/2 236/1/2 243/1/2
f 236/1/2 237/1/2 243/1/2
f 243/1/2 238/1/2 244/1/2
f 241/1/2 242/1/2 245/1/2
f 240/1/2 241/1/2 245/1/2
f 239/1/2 240/1/2 245/1/2
f 245/1/2 242/1/2 246/1/2
f 235/1/2 243/1/2 247/1/2
f 247/1/2 243/1/2 248/1/2
f 244/1/2 238/1/2 249/1/2
f 249/1/2 238/1/2 250/1/2
f 239/1/2 245/1/2 251/1/2
f 251/1/2 245/1/2 252/1/2
f 246/1/2 242/1/2 253/1/2
f 253/1/2 242/1/2 254/1/2
f 255/3/2 256/3/2 259/3/2
f 259/3/2 256/3/2 260/3/2
f 257/3/2 258/3/2 263/3/2
f 263/3/2 258/3/2 264/3/2
f 260/3/2 261/3/2 265/3/2
f 262/3/2 263/3/2 268/3/2
f 260/3/2 265/3/2 269/3/2
f 266/5/2 267/5/2 270/5/2
f 270/5/2 267/5/2 271/5/2
f 268/3/2 263/3/2 272/3/2
f 260/3/2 269/3/2 273/3/2
f 270/4/2 271/4/2 274/4/2
f 274/4/2 271/4/2 275/4/2
f 272/3/2 263/3/2 276/3/2
f 260/3/2 273/3/2 277/3/2
f 274/5/2 275/5/2 278/5/2
f 278/5/2 275/5/2 279/5/2
f 276/3/2 263/3/2 280/3/2
f 260/3/2 277/3/2 281/3/2
f 278/4/2 279/4/2 282/4/2
f 282/4/2 279/4/2 283/4/2
f 280/3/2 263/3/2 284/3/2
f 260/3/2 281/3/2 285/3/2
f 282/5/2 283/5/2 286/5/2
f 286/5/2 283/5/2 287/5/2
f 284/3/2 263/3/2 288/3/2
f 260/3/2 285/3/2 289/3/2
f 289/3/2 285/3/2 290/3/2
f 286/4/2 287/4/2 291/4/2
f 291/4/2 287/4/2 292/4/2
f 292/4/2 287/4/2 293/4/2
f 293/4/2 287/4/2 294/4/2
f 288/3/2 263/3/2 295/3/2
f 295/3/2 263/3/2 296/3/2
f 291/3/2 292/3/2 297/3/2
f 292/5/2 293/5/2 297/5/2
f 293/3/2 294/3/2 298/3/2
f 297/5/2 293/5/2 298/5/2
f 291/3/2 297/3/2 299/3/2
f 297/3/2 298/3/2 299/3/2
f 298/3/2 294/3/2 300/3/2
f 299/3/2 298/3/2 300/3/2
f 291/3/2 299/3/2 302/3/2
f 302/3/2 299/3/2 303/3/2
f 300/3/2 294/3/2 304/3/2
f 304/3/2 294/3/2 305/3/2
f 301/3/2 302/3/2 307/3/2
f 307/3/2 302/3/2 308/3/2
f 305/3/2 306/3/2 309/3/2
f 309/3/2 306/3/2 310/3/2
f 311/3/2 312/3/2 315/3/2
f 315/3/2 312/3/2 316/3/2
f 313/3/2 314/3/2 317/3/2
f 317/3/2 314/3/2 318/3/2
f 311/3/2 315/3/2 319/3/2
f 318/3/2 314/3/2 322/3/2
f 319/3/2 320/3/2 323/3/2
f 311/3/2 319/3/2 323/3/2
f 323/3/2 320/3/2 324/3/2
f 321/3/2 322/3/2 325/3/2
f 322/3/2 314/3/2 326/3/2
f 325/3/2 322/3/2 326/3/2
f 327/4/2 328/4/2 329/4/2
f 329/4/2 328/4/2 330/4/2
f 329/5/2 330/5/2 331/5/2
f 331/5/2 330/5/2 332/5/2
f 331/4/2 332/4/2 333/4/2
f 333/4/2 332/4/2 334/4/2
f 333/5/2 334/5/2 335/5/2
f 335/5/2 334/5/2 336/5/2
f 335/4/2 336/4/2 337/4/2
f 337/4/2 336/4/2 338/4/2
f 337/5/2 338/5/2 339/5/2
f 339/5/2 338/5/2 340/5/2
f 339/4/2 340/4/2 341/4/2
f 341/4/2 340/4/2 342/4/2
f 342/4/2 340/4/2 343/4/2
f 343/4/2 340/4/2 344/4/2
f 342/5/2 343/5/2 345/5/2
f 345/5/2 343/5/2 346/5/2
f 349/3/2 350/3/2 356/3/2
f 356/3/2 350/3/2 357/3/2
f 347/3/2 348/3/2 361/3/2
f 361/3/2 348/3/2 362/3/2
f 353/3/2 354/3/2 363/3/2
f 363/3/2 354/3/2 364/3/2
f 355/3/2 356/3/2 365/3/2
f 356/3/2 357/3/2 365/3/2
f 357/3/2 358/3/2 365/3/2
f 365/3/2 358/3/2 366/3/2
f 359/3/2 360/3/2 367/3/2
f 367/3/2 360/3/2 368/3/2
f 351/3/2 352/3/2 369/3/2
f 369/3/2 352/3/2 370/3/2
f 362/3/2 363/3/2 371/3/2
f 371/3/2 363/3/2 372/3/2
f 368/3/2 369/3/2 373/3/2
f 373/3/2 369/3/2 374/3/2
f 375/3/2 376/3/2 377/3/2
f 377/3/2 376/3/2 378/3/2
f 379/3/2 380/3/2 383/3/2
f 383/3/2 380/3/2 384/3/2
f 381/3/2 382/3/2 385/3/2
f 385/3/2 382/3/2 386/3/2
f 387/3/2 388/3/2 391/3/2
f 389/3/2 390/3/2 392/3/2
f 387/3/2 391/3/2 393/3/2
f 393/3/2 391/3/2 394/3/2
f 392/3/2 390/3/2 395/3/2
f 395/3/2 390/3/2 396/3/2
f 397/3/2 398/3/2 401/3/2
f 401/3/2 398/3/2 402/3/2
f 399/3/2 400/3/2 403/3/2
f 403/3/2 400/3/2 404/3/2
f 405/1/2 406/1/2 410/1/2
f 410/1/2 406/1/2 411/1/2
f 411/1/2 406/1/2 412/1/2
f 412/1/2 406/1/2 413/1/2
f 407/1/2 408/1/2 416/1/2
f 416/1/2 408/1/2 417/1/2
f 417/1/2 408/1/2 418/1/2
f 418/1/2 408/1/2 419/1/2
f 409/1/2 410/1/2 421/1/2
f 410/1/2 411/1/2 421/1/2
f 411/5/2 412/5/2 422/5/2
f 421/1/2 411/1/2 422/1/2
f 413/1/2 414/1/2 423/1/2
f 422/5/2 412/5/2 423/5/2
f 412/1/2 413/1/2 423/1/2
f 423/1/2 414/1/2 424/1/2
f 415/1/2 416/1/2 425/1/2
f 416/1/2 417/1/2 425/1/2
f 417/5/2 418/5/2 426/5/2
f 425/1/2 417/1/2 426/1/2
f 419/1/2 420/1/2 427/1/2
f 426/5/2 418/5/2 427/5/2
f 418/1/2 419/1/2 427/1/2
f 427/1/2 420/1/2 428/1/2
f 421/5/2 422/5/2 429/5/2
f 409/1/2 421/1/2 429/1/2
f 429/5/2 422/5/2 430/5/2
f 423/5/2 424/5/2 431/5/2
f 424/1/2 414/1/2 432/1/2
f 431/5/2 424/5/2 432/5/2
f 425/5/2 426/5/2 433/5/2
f 415/1/2 425/1/2 433/1/2
f 433/5/2 426/5/2 434/5/2
f 427/5/2 428/5/2 435/5/2
f 428/1/2 420/1/2 436/1/2
f 435/5/2 428/5/2 436/5/2
f 429/1/2 430/1/2 437/1/2
f 409/1/2 429/1/2 437/1/2
f 437/1/2 430/1/2 438/1/2
f 430/5/2 431/5/2 439/5/2
f 438/1/2 430/1/2 439/1/2
f 431/1/2 432/1/2 440/1/2
f 439/5/2 431/5/2 440/5/2
f 432/1/2 414/1/2 441/1/2
f 440/1/2 432/1/2 441/1/2
f 441/1/2 414/1/2 442/1/2
f 433/1/2 434/1/2 443/1/2
f 415/1/2 433/1/2 443/1/2
f 443/1/2 434/1/2 444/1/2
f 434/5/2 435/5/2 445/5/2
f 444/1/2 434/1/2 445/1/2
f 435/1/2 436/1/2 446/1/2
f 445/5/2 435/5/2 446/5/2
f 436/1/2 420/1/2 447/1/2
f 446/1/2 436/1/2 447/1/2
f 447/1/2 420/1/2 448/1/2
f 439/1/2 440/1/2 449/1/2
f 438/1/2 439/1/2 449/1/2
f 440/1/2 441/1/2 449/1/2
f 449/1/2 441/1/2 450/1/2
f 446/1/2 447/1/2 451/1/2
f 445/1/2 446/1/2 451/1/2
f 444/1/2 445/1/2 451/1/2
f 451/1/2 447/1/2 452/1/2
f 453/3/2 454/3/2 457/3/2
f 457/3/2 454/3/2 458/3/2
f 455/3/2 456/3/2 459/3/2
f 459/3/2 456/3/2 460/3/2
f 465/3/3 464/3/3 463/3/3
f 466/3/3 464/3/3 465/3/3
f 467/3/3 462/3/3 461/3/3
f 468/3/3 462/3/3 467/3/3
f 473/3/3 472/3/3 471/3/3
f 474/3/3 472/3/3 473/3/3
f 475/3/3 470/3/3 469/3/3
f 476/3/3 470/3/3 475/3/3
f 479/3/3 478/3/3 477/3/3
f 480/3/3 478/3/3 479/3/3
f 485/3/3 481/3/3 480/3/3
f 486/3/3 481/3/3 485/3/3
f 487/3/3 483/3/3 482/3/3
f 488/3/3 483/3/3 487/3/3
f 491/3/3 490/3/3 489/3/3
f 492/3/3 490/3/3 491/3/3
f 493/3/3 485/3/3 484/3/3
f 494/3/3 485/3/3 493/3/3
f 499/3/3 495/3/3 494/3/3
f 500/3/3 495/3/3 499/3/3
f 501/3/3 497/3/3 496/3/3
f 502/3/3 497/3/3 501/3/3
f 503/3/3 499/3/3 498/3/3
f 504/3/3 499/3/3 503/3/3
f 513/4/3 512/4/3 511/4/3
f 515/4/3 513/4/3 511/4/3
f 515/5/3 514/5/3 513/5/3
f 516/5/3 514/5/3 515/5/3
f 517/4/3 506/4/3 505/4/3
f 518/5/3 507/5/3 506/5/3
f 518/4/3 506/4/3 517/4/3
f 519/4/3 508/4/3 507/4/3
f 519/5/3 507/5/3 518/5/3
f 520/5/3 509/5/3 508/5/3
f 520/4/3 508/4/3 519/4/3
f 521/4/3 510/4/3 509/4/3
f 521/5/3 509/5/3 520/5/3
f 522/5/3 511/5/3 510/5/3
f 522/4/3 510/4/3 521/4/3
f 523/4/3 515/4/3 511/4/3
f 523/5/3 511/5/3 522/5/3
f 524/4/3 515/4/3 523/4/3
f 527/1/3 526/1/3 525/1/3
f 528/1/3 526/1/3 527/1/3
f 529/1/3 527/1/3 525/1/3
f 530/1/3 527/1/3 529/1/3
f 533/1/3 532/1/3 531/1/3
f 535/1/3 533/1/3 531/1/3
f 535/1/3 534/1/3 533/1/3
f 536/1/3 534/1/3 535/1/3
f 541/1/3 538/1/3 537/1/3
f 542/1/3 538/1/3 541/1/3
f 543/1/3 540/1/3 539/1/3
f 544/1/3 540/1/3 543/1/3
f 549/1/3 546/1/3 545/1/3
f 550/1/3 546/1/3 549/1/3
f 551/1/3 548/1/3 547/1/3
f 552/1/3 548/1/3 551/1/3
f 555/3/3 554/3/3 553/3/3
f 556/3/3 554/3/3 555/3/3
f 559/2/3 558/2/3 557/2/3
f 560/2/3 558/2/3 559/2/3
f 563/3/3 562/3/3 561/3/3
f 564/3/3 562/3/3 563/3/3
f 567/1/3 566/1/3 565/1/3
f 568/1/3 566/1/3 567/1/3
f 569/1/3 566/1/3 568/1/3
f 573/1/3 571/1/3 570/1/3
f 573/1/3 572/1/3 571/1/3
f 574/1/3 572/1/3 573/1/3
f 579/1/3 576/1/3 575/1/3
f 580/1/3 576/1/3 579/1/3
f 581/1/3 578/1/3 577/1/3
f 582/1/3 578/1/3 581/1/3
f 587/1/3 584/1/3 583/1/3
f 588/1/3 584/1/3 587/1/3
f 589/1/3 586/1/3 585/1/3
f 590/1/3 586/1/3 589/1/3
f 593/3/3 592/3/3 591/3/3
f 594/3/3 592/3/3 593/3/3
f 597/2/3 596/2/3 595/2/3
f 598/2/3 596/2/3 597/2/3
f 601/3/3 600/3/3 599/3/3
f 602/3/3 600/3/3 601/3/3
f 605/3/3 604/3/3 603/3/3
f 606/3/3 604/3/3 605/3/3
f 607/3/3 605/3/3 603/3/3
f 608/3/3 605/3/3 607/3/3
f 609/3/3 604/3/3 606/3/3
f 610/3/3 604/3/3 609/3/3
f 615/3/3 614/3/3 613/3/3
f 616/3/3 612/3/3 611/3/3
f 617/3/3 615/3/3 613/3/3
f 617/3/3 616/3/3 615/3/3
f 618/3/3 612/3/3 616/3/3
f 618/3/3 616/3/3 617/3/3
f 621/3/3 620/3/3 619/3/3
f 622/3/3 620/3/3 621/3/3
f 626/3/3 623/3/3 622/3/3
f 627/3/3 623/3/3 626/3/3
f 628/3/3 623/3/3 627/3/3
f 629/3/3 623/3/3 628/3/3
f 630/3/3 623/3/3 629/3/3
f 631/3/3 623/3/3 630/3/3
f 632/3/3 623/3/3 631/3/3
f 633/3/3 623/3/3 632/3/3
f 641/3/3 625/3/3 624/3/3
f 642/3/3 625/3/3 641/3/3
f 643/4/3 640/4/3 639/4/3
f 643/3/3 641/3/3 640/3/3
f 644/3/3 641/3/3 643/3/3
f 645/3/3 641/3/3 644/3/3
f 646/3/3 641/3/3 645/3/3
f 647/4/3 643/4/3 639/4/3
f 647/5/3 644/5/3 643/5/3
f 648/3/3 645/3/3 644/3/3
f 648/5/3 644/5/3 647/5/3
f 649/3/3 645/3/3 648/3/3
f 651/5/3 635/5/3 634/5/3
f 652/4/3 636/4/3 635/4/3
f 652/5/3 635/5/3 651/5/3
f 653/5/3 637/5/3 636/5/3
f 653/4/3 636/4/3 652/4/3
f 654/4/3 638/4/3 637/4/3
f 654/5/3 637/5/3 653/5/3
f 655/5/3 639/5/3 638/5/3
f 655/4/3 638/4/3 654/4/3
f 656/4/3 647/4/3 639/4/3
f 656/5/3 639/5/3 655/5/3
f 657/3/3 650/3/3 649/3/3
f 657/4/3 647/4/3 656/4/3
f 657/3/3 648/3/3 647/3/3
f 657/3/3 649/3/3 648/3/3
f 658/3/3 650/3/3 657/3/3
f 669/3/3 661/3/3 660/3/3
f 669/3/3 667/3/3 666/3/3
f 669/3/3 666/3/3 665/3/3
f 669/3/3 665/3/3 664/3/3
f 669/3/3 664/3/3 663/3/3
f 669/3/3 663/3/3 662/3/3
f 669/3/3 662/3/3 661/3/3
f 670/3/3 667/3/3 669/3/3
f 671/3/3 659/3/3 658/3/3
f 672/3/3 659/3/3 671/3/3
f 673/3/3 669/3/3 668/3/3
f 674/3/3 669/3/3 673/3/3
f 675/3/4 676/3/4 677/3/4
f 677/3/4 676/3/4 678/3/4
f 678/3/4 679/3/4 682/3/4
f 682/3/4 679/3/4 683/3/4
f 683/3/4 679/3/4 684/3/4
f 684/3/4 679/3/4 685/3/4
f 685/3/4 679/3/4 686/3/4
f 686/3/4 679/3/4 687/3/4
f 687/3/4 679/3/4 688/3/4
f 688/3/4 679/3/4 689/3/4
f 680/3/4 681/3/4 697/3/4
f 697/3/4 681/3/4 698/3/4
f 695/4/4 696/4/4 699/4/4
f 696/3/4 697/3/4 699/3/4
f 699/3/4 697/3/4 700/3/4
f 700/3/4 697/3/4 701/3/4
f 701/3/4 697/3/4 702/3/4
f 695/4/4 699/4/4 703/4/4
f 699/5/4 700/5/4 703/5/4
f 700/3/4 701/3/4 704/3/4
f 703/5/4 700/5/4 704/5/4
f 704/3/4 701/3/4 705/3/4
f 690/5/4 691/5/4 707/5/4
f 691/4/4 692/4/4 708/4/4
f 707/5/4 691/5/4 708/5/4
f 692/5/4 693/5/4 709/5/4
f 708/4/4 692/4/4 709/4/4
f 693/4/4 694/4/4 710/4/4
f 709/5/4 693/5/4 710/5/4
f 694/5/4 695/5/4 711/5/4
f 710/4/4 694/4/4 711/4/4
f 695/4/4 703/4/4 712/4/4
f 711/5/4 695/5/4 712/5/4
f 705/3/4 706/3/4 713/3/4
f 712/4/4 703/4/4 713/4/4
f 703/3/4 704/3/4 713/3/4
f 704/3/4 705/3/4 713/3/4
f 713/3/4 706/3/4 714/3/4
f 716/3/4 717/3/4 725/3/4
f 722/3/4 723/3/4 725/3/4
f 721/3/4 722/3/4 725/3/4
f 720/3/4 721/3/4 725/3/4
f 719/3/4 720/3/4 725/3/4
f 718/3/4 719/3/4 725/3/4
f 717/3/4 718/3/4 725/3/4
f 725/3/4 723/3/4 726/3/4
f 714/3/4 715/3/4 727/3/4
f 727/3/4 715/3/4 728/3/4
f 724/3/4 725/3/4 729/3/4
f 729/3/4 725/3/4 730/3/4
f 731/3/4 732/3/4 733/3/4
f 733/3/4 732/3/4 734/3/4
f 731/3/4 733/3/4 735/3/4
f 735/3/4 733/3/4 736/3/4
f 734/3/4 732/3/4 737/3/4
f 737/3/4 732/3/4 738/3/4
f 741/3/4 742/3/4 743/3/4
f 739/3/4 740/3/4 744/3/4
f 741/3/4 743/3/4 745/3/4
f 743/3/4 744/3/4 745/3/4
f 744/3/4 740/3/4 746/3/4
f 745/3/4 744/3/4 746/3/4
f 747/3/4 748/3/4 749/3/4
f 749/3/4 748/3/4 750/3/4
f 751/2/4 752/2/4 753/2/4
f 753/2/4 752/2/4 754/2/4
f 755/3/4 756/3/4 757/3/4
f 757/3/4 756/3/4 758/3/4
f 759/1/4 760/1/4 763/1/4
f 763/1/4 760/1/4 764/1/4
f 761/1/4 762/1/4 765/1/4
f 765/1/4 762/1/4 766/1/4
f 767/1/4 768/1/4 771/1/4
f 771/1/4 768/1/4 772/1/4
f 769/1/4 770/1/4 773/1/4
f 773/1/4 770/1/4 774/1/4
f 775/1/4 776/1/4 777/1/4
f 777/1/4 776/1/4 778/1/4
f 778/1/4 776/1/4 779/1/4
f 780/1/4 781/1/4 783/1/4
f 781/1/4 782/1/4 783/1/4
f 783/1/4 782/1/4 784/1/4
f 785/3/4 786/3/4 787/3/4
f 787/3/4 786/3/4 788/3/4
f 789/2/4 790/2/4 791/2/4
f 791/2/4 790/2/4 792/2/4
f 793/3/4 794/3/4 795/3/4
f 795/3/4 794/3/4 796/3/4
f 797/1/4 798/1/4 801/1/4
f 801/1/4 798/1/4 802/1/4
f 799/1/4 800/1/4 803/1/4
f 803/1/4 800/1/4 804/1/4
f 805/1/4 806/1/4 809/1/4
f 809/1/4 806/1/4 810/1/4
f 807/1/4 808/1/4 811/1/4
f 811/1/4 808/1/4 812/1/4
f 813/1/4 814/1/4 815/1/4
f 815/1/4 814/1/4 816/1/4
f 813/1/4 815/1/4 817/1/4
f 817/1/4 815/1/4 818/1/4
f 819/1/4 820/1/4 821/1/4
f 819/1/4 821/1/4 823/1/4
f 821/1/4 822/1/4 823/1/4
f 823/1/4 822/1/4 824/1/4
f 831/4/4 832/4/4 833/4/4
f 831/4/4 833/4/4 835/4/4
f 833/5/4 834/5/4 835/5/4
f 835/5/4 834/5/4 836/5/4
f 825/4/4 826/4/4 837/4/4
f 826/5/4 827/5/4 838/5/4
f 837/4/4 826/4/4 838/4/4
f 827/4/4 828/4/4 839/4/4
f 838/5/4 827/5/4 839/5/4
f 828/5/4 829/5/4 840/5/4
f 839/4/4 828/4/4 840/4/4
f 829/4/4 830/4/4 841/4/4
f 840/5/4 829/5/4 841/5/4
f 830/5/4 831/5/4 842/5/4
f 841/4/4 830/4/4 842/4/4
f 831/4/4 835/4/4 843/4/4
f 842/5/4 831/5/4 843/5/4
f 843/4/4 835/4/4 844/4/4
f 845/3/4 846/3/4 847/3/4
f 847/3/4 846/3/4 848/3/4
f 848/3/4 849/3/4 853/3/4
f 853/3/4 849/3/4 854/3/4
f 850/3/4 851/3/4 855/3/4
f 855/3/4 851/3/4 856/3/4
f 857/3/4 858/3/4 859/3/4
f 859/3/4 858/3/4 860/3/4
f 852/3/4 853/3/4 861/3/4
f 861/3/4 853/3/4 862/3/4
f 862/3/4 863/3/4 867/3/4
f 867/3/4 863/3/4 868/3/4
f 864/3/4 865/3/4 869/3/4
f 869/3/4 865/3/4 870/3/4
f 866/3/4 867/3/4 871/3/4
f 871/3/4 867/3/4 872/3/4
f 875/3/4 876/3/4 877/3/4
f 877/3/4 876/3/4 878/3/4
f 873/3/4 874/3/4 879/3/4
f 879/3/4 874/3/4 880/3/4
f 883/3/4 884/3/4 885/3/4
f 885/3/4 884/3/4 886/3/4
f 881/3/4 882/3/4 887/3/4
f 887/3/4 882/3/4 888/3/4
f 893/1/5 890/1/5 889/1/5
f 894/1/5 890/1/5 893/1/5
f 895/1/5 892/1/5 891/1/5
f 896/1/5 892/1/5 895/1/5
f 901/1/5 898/1/5 897/1/5
f 902/1/5 898/1/5 901/1/5
f 903/1/5 900/1/5 899/1/5
f 904/1/5 900/1/5 903/1/5
f 909/1/5 906/1/5 905/1/5
f 910/1/5 906/1/5 909/1/5
f 911/1/5 908/1/5 907/1/5
f 912/1/5 908/1/5 911/1/5
f 917/1/5 914/1/5 913/1/5
f 918/1/5 914/1/5 917/1/5
f 919/1/5 916/1/5 915/1/5
f 920/1/5 916/1/5 919/1/5
f 925/1/5 922/1/5 921/1/5
f 926/1/5 922/1/5 925/1/5
f 927/1/5 924/1/5 923/1/5
f 928/1/5 924/1/5 927/1/5
f 933/1/5 930/1/5 929/1/5
f 934/1/5 930/1/5 933/1/5
f 935/1/5 932/1/5 931/1/5
f 936/1/5 932/1/5 935/1/5
f 941/3/5 938/3/5 937/3/5
f 942/3/5 938/3/5 941/3/5
f 943/3/5 940/3/5 939/3/5
f 944/3/5 940/3/5 943/3/5
f 949/3/5 946/3/5 945/3/5
f 950/3/5 946/3/5 949/3/5
f 951/3/5 948/3/5 947/3/5
f 952/3/5 948/3/5 951/3/5
f 955/2/5 954/2/5 953/2/5
f 956/2/5 954/2/5 955/2/5
f 959/2/5 958/2/5 957/2/5
f 960/2/5 958/2/5 959/2/5
f 966/3/5 962/3/5 961/3/5
f 967/3/5 962/3/5 966/3/5
f 968/3/5 964/3/5 963/3/5
f 969/3/5 964/3/5 968/3/5
f 971/3/5 967/3/5 966/3/5
f 971/3/5 970/3/5 969/3/5
f 971/3/5 969/3/5 968/3/5
f 971/3/5 968/3/5 967/3/5
f 971/3/5 966/3/5 965/3/5
f 972/3/5 970/3/5 971/3/5
f 973/3/5 970/3/5 972/3/5
f 974/3/5 970/3/5 973/3/5
f 975/3/5 973/3/5 972/3/5
f 976/3/5 973/3/5 975/3/5
f 979/3/5 978/3/5 977/3/5
f 980/3/5 978/3/5 979/3/5
f 981/3/5 980/3/5 979/3/5
f 982/3/5 980/3/5 981/3/5
f 983/3/5 982/3/5 981/3/5
f 984/3/5 982/3/5 983/3/5
f 988/3/5 986/3/5 985/3/5
f 989/3/5 986/3/5 988/3/5
f 991/3/5 989/3/5 988/3/5
f 991/3/5 990/3/5 989/3/5
f 991/3/5 988/3/5 987/3/5
f 992/3/5 990/3/5 991/3/5
f 993/3/5 990/3/5 992/3/5
f 994/3/5 990/3/5 993/3/5
f 995/3/5 990/3/5 994/3/5
f 996/3/5 990/3/5 995/3/5
f 997/3/5 993/3/5 992/3/5
f 998/3/5 993/3/5 997/3/5
f 999/3/5 995/3/5 994/3/5
f 1000/3/5 995/3/5 999/3/5
f 1005/3/5 1002/3/5 1001/3/5
f 1006/3/5 1002/3/5 1005/3/5
f 1007/3/5 1004/3/5 1003/3/5
f 1008/3/5 1004/3/5 1007/3/5
f 1009/3/5 1002/3/5 1006/3/5
f 1010/3/5 1002/3/5 1009/3/5
f 1011/3/5 1007/3/5 1003/3/5
f 1012/3/5 1007/3/5 1011/3/5
f 1013/3/5 1005/3/5 1001/3/5
f 1016/3/5 1004/3/5 1008/3/5
f 1017/3/5 1013/3/5 1001/3/5
f 1017/3/5 1014/3/5 1013/3/5
f 1018/3/5 1014/3/5 1017/3/5
f 1019/3/5 1016/3/5 1015/3/5
f 1020/3/5 1004/3/5 1016/3/5
f 1020/3/5 1016/3/5 1019/3/5
f 1025/3/5 1022/3/5 1021/3/5
f 1026/3/5 1022/3/5 1025/3/5
f 1027/3/5 1024/3/5 1023/3/5
f 1028/3/5 1024/3/5 1027/3/5
f 1033/3/5 1025/3/5 1021/3/5
f 1034/3/5 1030/3/5 1029/3/5
f 1035/3/5 1032/3/5 1031/3/5
f 1036/3/5 1024/3/5 1028/3/5
f 1037/3/5 1034/3/5 1033/3/5
f 1037/3/5 1033/3/5 1021/3/5
f 1038/3/5 1030/3/5 1034/3/5
f 1038/3/5 1034/3/5 1037/3/5
f 1039/3/5 1035/3/5 1031/3/5
f 1039/3/5 1036/3/5 1035/3/5
f 1040/3/5 1024/3/5 1036/3/5
f 1040/3/5 1036/3/5 1039/3/5
f 1043/3/5 1042/3/5 1041/3/5
f 1044/3/5 1042/3/5 1043/3/5
f 1049/3/5 1046/3/5 1045/3/5
f 1050/3/5 1046/3/5 1049/3/5
f 1051/3/5 1048/3/5 1047/3/5
f 1052/3/5 1048/3/5 1051/3/5
f 1055/3/5 1054/3/5 1053/3/5
f 1056/3/5 1054/3/5 1055/3/5
f 1057/3/6 1058/3/6 1061/3/6
f 1061/3/6 1058/3/6 1062/3/6
f 1059/3/6 1060/3/6 1063/3/6
f 1063/3/6 1060/3/6 1064/3/6
f 1065/3/6 1066/3/6 1069/3/6
f 1069/3/6 1066/3/6 1070/3/6
f 1067/3/6 1068/3/6 1071/3/6
f 1071/3/6 1068/3/6 1072/3/6
f 1073/1/6 1074/1/6 1079/1/6
f 1074/1/6 1075/1/6 1079/1/6
f 1079/1/6 1075/1/6 1080/1/6
f 1077/1/6 1078/1/6 1081/1/6
f 1076/1/6 1077/1/6 1081/1/6
f 1081/1/6 1078/1/6 1082/1/6
f 1083/1/6 1084/1/6 1087/1/6
f 1087/1/6 1084/1/6 1088/1/6
f 1085/1/6 1086/1/6 1089/1/6
f 1089/1/6 1086/1/6 1090/1/6
f 1091/1/6 1092/1/6 1095/1/6
f 1095/1/6 1092/1/6 1096/1/6
f 1093/1/6 1094/1/6 1097/1/6
f 1097/1/6 1094/1/6 1098/1/6
f 1099/1/6 1100/1/6 1103/1/6
f 1103/1/6 1100/1/6 1104/1/6
f 1104/1/6 1100/1/6 1105/1/6
f 1101/1/6 1102/1/6 1106/1/6
f 1106/1/6 1102/1/6 1107/1/6
f 1107/1/6 1102/1/6 1108/1/6
f 1109/3/6 1110/3/6 1114/3/6
f 1114/3/6 1110/3/6 1115/3/6
f 1111/3/6 1112/3/6 1116/3/6
f 1116/3/6 1112/3/6 1117/3/6
f 1115/3/6 1116/3/6 1119/3/6
f 1119/3/6 1116/3/6 1120/3/6
f 1113/3/6 1114/3/6 1121/3/6
f 1121/3/6 1114/3/6 1122/3/6
f 1117/3/6 1118/3/6 1125/3/6
f 1125/3/6 1118/3/6 1126/3/6
f 1122/3/6 1123/3/6 1128/3/6
f 1124/3/6 1125/3/6 1129/3/6
f 1127/1/6 1128/1/6 1131/1/6
f 1128/3/6 1123/3/6 1132/3/6
f 1131/1/6 1128/1/6 1132/1/6
f 1124/3/6 1129/3/6 1133/3/6
f 1129/1/6 1130/1/6 1133/1/6
f 1133/1/6 1130/1/6 1134/1/6
f 1132/3/6 1123/3/6 1136/3/6
f 1124/3/6 1133/3/6 1137/3/6
f 1135/1/6 1136/1/6 1139/1/6
f 1136/3/6 1123/3/6 1140/3/6
f 1139/1/6 1136/1/6 1140/1/6
f 1137/1/6 1138/1/6 1141/1/6
f 1124/3/6 1137/3/6 1141/3/6
f 1141/1/6 1138/1/6 1142/1/6
f 1140/3/6 1123/3/6 1144/3/6
f 1144/3/6 1123/3/6 1145/3/6
f 1124/3/6 1141/3/6 1146/3/6
f 1146/3/6 1141/3/6 1147/3/6
f 1143/3/6 1144/3/6 1151/3/6
f 1151/3/6 1144/3/6 1152/3/6
f 1149/3/6 1150/3/6 1153/3/6
f 1153/3/6 1150/3/6 1154/3/6
f 1147/3/6 1148/3/6 1155/3/6
f 1155/3/6 1148/3/6 1156/3/6
f 1152/3/6 1153/3/6 1157/3/6
f 1157/3/6 1153/3/6 1158/3/6
f 1154/3/6 1155/3/6 1159/3/6
f 1159/3/6 1155/3/6 1160/3/6
f 1161/5/6 1162/5/6 1163/5/6
f 1163/5/6 1162/5/6 1164/5/6
f 1165/3/6 1166/3/6 1167/3/6
f 1167/3/6 1166/3/6 1168/3/6
f 1169/3/6 1170/3/6 1173/3/6
f 1173/3/6 1170/3/6 1174/3/6
f 1171/3/6 1172/3/6 1175/3/6
f 1175/3/6 1172/3/6 1176/3/6
f 1177/3/6 1178/3/6 1179/3/6
f 1179/3/6 1178/3/6 1180/3/6
f 1181/3/6 1182/3/6 1185/3/6
f 1185/3/6 1182/3/6 1186/3/6
f 1183/3/6 1184/3/6 1187/3/6
f 1187/3/6 1184/3/6 1188/3/6
f 1181/3/6 1185/3/6 1189/3/6
f 1186/3/6 1182/3/6 1190/3/6
f 1190/3/6 1182/3/6 1191/3/6
f 1183/3/6 1187/3/6 1192/3/6
f 1192/3/6 1187/3/6 1193/3/6
f 1188/3/6 1184/3/6 1194/3/6
f 1181/3/6 1189/3/6 1195/3/6
f 1189/3/6 1190/3/6 1195/3/6
f 1195/3/6 1190/3/6 1196/3/6
f 1193/3/6 1194/3/6 1197/3/6
f 1194/3/6 1184/3/6 1198/3/6
f 1197/3/6 1194/3/6 1198/3/6
f 1199/3/6 1200/3/6 1203/3/6
f 1203/3/6 1200/3/6 1204/3/6
f 1201/3/6 1202/3/6 1207/3/6
f 1207/3/6 1202/3/6 1208/3/6
f 1199/3/6 1203/3/6 1209/3/6
f 1204/3/6 1205/3/6 1210/3/6
f 1206/3/6 1207/3/6 1211/3/6
f 1208/3/6 1202/3/6 1212/3/6
f 1199/3/6 1209/3/6 1213/3/6
f 1209/3/6 1210/3/6 1213/3/6
f 1210/3/6 1205/3/6 1214/3/6
f 1213/3/6 1210/3/6 1214/3/6
f 1211/3/6 1212/3/6 1215/3/6
f 1206/3/6 1211/3/6 1215/3/6
f 1212/3/6 1202/3/6 1216/3/6
f 1215/3/6 1212/3/6 1216/3/6
f 1217/3/6 1218/3/6 1221/3/6
f 1221/3/6 1218/3/6 1222/3/6
f 1219/3/6 1220/3/6 1223/3/6
f 1223/3/6 1220/3/6 1224/3/6
f 1225/3/6 1226/3/6 1229/3/6
f 1229/3/6 1226/3/6 1230/3/6
f 1227/3/6 1228/3/6 1231/3/6
f 1231/3/6 1228/3/6 1232/3/6
